<?xml version="1.0" encoding="iso-8859-1"?>
<!-- Uploaded to: SVG Repo, www.svgrepo.com, Generator: SVG Repo Mixer Tools -->
<svg fill="#000000" height="800px" width="800px" version="1.1" id="Capa_1" xmlns="http://www.w3.org/2000/svg" xmlns:xlink="http://www.w3.org/1999/xlink" 
	 viewBox="0 0 463 463" xml:space="preserve">
<g>
	<path d="M447.5,208h-1.834c-1.354-12.485-3.787-24.802-7.263-36.767l1.648-0.683c7.896-3.27,11.658-12.354,8.388-20.251
		l-6.122-14.781c-1.584-3.825-4.563-6.805-8.389-8.39c-3.824-1.584-8.039-1.584-11.863,0l-1.67,0.691
		c-6.024-10.952-13.006-21.384-20.841-31.141l1.298-1.298c6.043-6.044,6.043-15.877,0-21.921l-11.313-11.313
		c-6.044-6.042-15.878-6.044-21.92,0l-1.299,1.298c-9.759-7.836-20.189-14.816-31.141-20.841l0.692-1.671
		c1.584-3.824,1.583-8.038-0.001-11.862c-1.585-3.825-4.564-6.805-8.389-8.388l-14.783-6.124c-3.823-1.583-8.036-1.585-11.861,0
		c-3.826,1.585-6.805,4.563-8.389,8.389l-0.684,1.648c-11.967-3.476-24.283-5.908-36.766-7.263V15.5C255,6.953,248.047,0,239.5,0
		h-16C214.953,0,208,6.953,208,15.5v1.834c-12.482,1.354-24.798,3.787-36.766,7.263l-0.683-1.649
		c-3.271-7.895-12.357-11.659-20.252-8.387l-14.782,6.123c-7.896,3.27-11.658,12.354-8.388,20.251l0.691,1.67
		C116.87,48.628,106.438,55.61,96.68,63.445l-1.297-1.298c-6.044-6.042-15.878-6.044-21.92,0L62.147,73.461
		c-6.043,6.044-6.043,15.877,0,21.921l1.299,1.298c-7.836,9.757-14.817,20.188-20.842,31.141l-1.67-0.692
		c-7.896-3.269-16.98,0.495-20.252,8.39l-6.121,14.781c-1.585,3.825-1.585,8.039-0.001,11.864s4.563,6.804,8.388,8.388l1.648,0.683
		c-3.476,11.968-5.908,24.283-7.262,36.767H15.5C6.953,208,0,214.953,0,223.5v16c0,8.547,6.953,15.5,15.5,15.5h1.835
		c1.354,12.482,3.787,24.799,7.262,36.766l-1.648,0.683c-3.824,1.585-6.804,4.564-8.388,8.389
		c-1.584,3.825-1.584,8.039,0.001,11.863l6.122,14.782c3.271,7.895,12.355,11.659,20.252,8.388l1.669-0.691
		c6.024,10.952,13.006,21.384,20.842,31.141l-1.299,1.298c-6.043,6.044-6.043,15.877,0,21.921l11.314,11.314
		c6.046,6.043,15.879,6.044,21.921-0.001l1.298-1.298c9.756,7.835,20.188,14.816,31.141,20.841l-0.692,1.671
		c-3.27,7.896,0.493,16.98,8.389,20.25l14.781,6.123c3.824,1.585,8.038,1.586,11.864,0.001c3.824-1.584,6.804-4.563,8.39-8.389
		l0.682-1.647c11.967,3.475,24.283,5.908,36.766,7.262v1.835c0,8.547,6.953,15.5,15.5,15.5h16c8.547,0,15.5-6.953,15.5-15.5v-1.835
		c12.483-1.354,24.799-3.786,36.767-7.262l0.682,1.646c1.585,3.826,4.563,6.806,8.389,8.39c3.826,1.584,8.039,1.585,11.863-0.001
		l14.781-6.122c3.825-1.584,6.805-4.563,8.39-8.389c1.584-3.824,1.585-8.038,0-11.863l-0.691-1.67
		c10.952-6.024,21.384-13.006,31.141-20.841l1.298,1.299c6.046,6.043,15.877,6.044,21.921-0.001l11.313-11.313
		c6.043-6.044,6.043-15.877,0-21.921l-1.298-1.297c7.835-9.758,14.817-20.19,20.841-31.142l1.671,0.692
		c3.823,1.584,8.037,1.583,11.862-0.001c3.825-1.585,6.805-4.564,8.388-8.389l6.124-14.782c3.269-7.895-0.493-16.979-8.389-20.252
		l-1.648-0.682c3.476-11.968,5.908-24.283,7.263-36.766h1.834c8.547,0,15.5-6.953,15.5-15.5v-16C463,214.953,456.047,208,447.5,208z
		 M448,239.5c0,0.275-0.225,0.5-0.5,0.5h-8.673c-3.921,0-7.181,3.021-7.479,6.931c-1.218,15.991-4.331,31.745-9.253,46.824
		c-1.216,3.725,0.641,7.757,4.26,9.257l7.955,3.294c0.255,0.105,0.377,0.399,0.271,0.654l-6.124,14.782
		c-0.02,0.047-0.079,0.19-0.27,0.27c-0.191,0.079-0.336,0.02-0.383,0.001l-7.976-3.304c-3.622-1.503-7.781,0.038-9.555,3.528
		c-7.225,14.204-16.157,27.552-26.55,39.672c-2.552,2.976-2.382,7.414,0.39,10.186l6.13,6.13c0.195,0.194,0.195,0.512,0,0.707
		l-11.313,11.313c-0.194,0.196-0.514,0.194-0.706,0l-6.131-6.131c-2.772-2.77-7.21-2.941-10.186-0.39
		c-12.118,10.392-25.466,19.324-39.671,26.55c-3.49,1.774-5.027,5.937-3.528,9.555l3.303,7.975c0.02,0.048,0.08,0.192,0,0.384
		c-0.079,0.19-0.223,0.25-0.271,0.271l-14.783,6.123c-0.048,0.019-0.192,0.079-0.382,0c-0.19-0.079-0.25-0.223-0.271-0.271
		l-3.296-7.956c-1.498-3.619-5.527-5.478-9.257-4.26c-15.076,4.923-30.83,8.036-46.823,9.253c-3.91,0.298-6.931,3.558-6.931,7.479
		v8.674c0,0.275-0.225,0.5-0.5,0.5h-16c-0.275,0-0.5-0.225-0.5-0.5v-8.674c0-3.921-3.021-7.181-6.931-7.479
		c-15.992-1.217-31.745-4.33-46.823-9.253c-0.771-0.252-1.556-0.372-2.328-0.372c-2.958,0-5.74,1.762-6.93,4.632l-3.294,7.955
		c-0.02,0.048-0.079,0.192-0.271,0.271c-0.189,0.08-0.335,0.019-0.383,0l-14.782-6.123c-0.255-0.105-0.376-0.399-0.271-0.653
		l3.304-7.976c1.499-3.618-0.038-7.78-3.528-9.555c-14.207-7.227-27.555-16.159-39.672-26.55c-2.975-2.552-7.413-2.383-10.186,0.391
		l-6.13,6.13c-0.193,0.196-0.513,0.194-0.706,0l-11.314-11.314c-0.195-0.194-0.195-0.512-0.001-0.706l6.131-6.13
		c2.772-2.771,2.942-7.21,0.391-10.186c-10.393-12.119-19.325-25.467-26.551-39.672c-1.775-3.49-5.94-5.026-9.555-3.528
		l-7.974,3.303c-0.255,0.109-0.549-0.016-0.655-0.271l-6.122-14.782c-0.02-0.047-0.079-0.191,0-0.382
		c0.079-0.192,0.224-0.252,0.271-0.271l7.956-3.295c3.619-1.5,5.476-5.532,4.26-9.258c-4.923-15.078-8.036-30.831-9.253-46.823
		c-0.298-3.91-3.558-6.931-7.479-6.931H15.5c-0.275,0-0.5-0.225-0.5-0.5v-16c0-0.275,0.225-0.5,0.5-0.5h8.674
		c3.921,0,7.181-3.021,7.479-6.931c1.217-15.992,4.33-31.746,9.252-46.824c1.216-3.724-0.64-7.757-4.259-9.256l-7.957-3.297
		c-0.047-0.02-0.19-0.079-0.27-0.27c-0.079-0.191-0.02-0.335,0.001-0.383l6.121-14.781c0.106-0.256,0.399-0.376,0.654-0.272
		l7.975,3.304c3.618,1.497,7.779-0.037,9.555-3.528c7.226-14.206,16.158-27.553,26.551-39.67c2.552-2.976,2.382-7.414-0.39-10.187
		l-6.131-6.131c-0.195-0.194-0.195-0.512-0.001-0.706l11.315-11.313c0.193-0.194,0.513-0.196,0.706,0l6.13,6.13
		c2.772,2.771,7.211,2.941,10.186,0.39c12.12-10.393,25.468-19.325,39.672-26.55c3.49-1.775,5.027-5.937,3.528-9.555l-3.303-7.975
		c-0.106-0.256,0.015-0.549,0.27-0.654l14.781-6.122c0.257-0.107,0.549,0.015,0.654,0.27l3.295,7.956
		c1.5,3.618,5.531,5.478,9.257,4.26c15.079-4.922,30.833-8.035,46.824-9.253c3.91-0.298,6.931-3.558,6.931-7.479V15.5
		c0-0.275,0.225-0.5,0.5-0.5h16c0.275,0,0.5,0.225,0.5,0.5v8.673c0,3.921,3.021,7.181,6.931,7.479
		c15.991,1.218,31.745,4.331,46.824,9.253c3.721,1.216,7.757-0.641,9.256-4.26l3.297-7.957c0.02-0.047,0.078-0.19,0.27-0.269
		c0.192-0.08,0.336-0.02,0.383-0.001l14.783,6.124c0.047,0.02,0.19,0.079,0.27,0.27c0.08,0.191,0.02,0.336,0.001,0.383l-3.304,7.976
		c-1.499,3.618,0.038,7.779,3.528,9.555c14.203,7.225,27.55,16.156,39.671,26.55c2.974,2.55,7.413,2.383,10.185-0.39l6.132-6.13
		c0.192-0.194,0.512-0.196,0.706,0l11.313,11.313c0.195,0.194,0.195,0.512,0,0.707l-6.13,6.131c-2.771,2.771-2.941,7.21-0.39,10.185
		c10.392,12.119,19.324,25.466,26.55,39.671c1.774,3.489,5.938,5.026,9.555,3.528l7.975-3.303c0.048-0.021,0.192-0.08,0.384,0
		c0.19,0.079,0.25,0.223,0.271,0.271l6.122,14.781c0.105,0.256-0.015,0.549-0.27,0.654l-7.956,3.296
		c-3.62,1.499-5.476,5.532-4.26,9.257c4.922,15.073,8.035,30.826,9.253,46.823c0.298,3.91,3.558,6.931,7.479,6.931h8.673
		c0.275,0,0.5,0.225,0.5,0.5V239.5z"/>
	<path d="M231.5,56C134.729,56,56,134.729,56,231.5S134.729,407,231.5,407S407,328.271,407,231.5S328.271,56,231.5,56z M390.275,208
		H288.234l72.104-72.104C375.786,156.659,386.336,181.268,390.275,208z M360.339,327.104L288.234,255h102.041
		C386.336,281.732,375.786,306.341,360.339,327.104z M278.223,240c0.501-2.76,0.777-5.598,0.777-8.5s-0.276-5.74-0.777-8.5h113.552
		c0.148,2.815,0.225,5.649,0.225,8.5s-0.078,5.685-0.225,8.5H278.223z M231.5,264c-17.921,0-32.5-14.579-32.5-32.5
		s14.579-32.5,32.5-32.5s32.5,14.579,32.5,32.5S249.421,264,231.5,264z M208,390.275c-26.732-3.939-51.341-14.489-72.104-29.936
		L208,288.233V390.275z M72.725,255h102.042l-72.105,72.104C87.214,306.341,76.664,281.732,72.725,255z M71.225,240
		c-0.148-2.815-0.225-5.649-0.225-8.5s0.078-5.685,0.225-8.5h113.552c-0.501,2.76-0.777,5.598-0.777,8.5s0.276,5.74,0.777,8.5
		H71.225z M102.661,135.896L174.767,208H72.725C76.664,181.268,87.214,156.659,102.661,135.896z M255,72.725
		c26.732,3.939,51.341,14.489,72.104,29.936L255,174.766V72.725z M350.784,124.235l-80.247,80.248
		c-3.255-4.689-7.331-8.765-12.02-12.02l80.248-80.247C342.979,116.009,346.991,120.021,350.784,124.235z M240,71.225v113.552
		c-2.76-0.501-5.598-0.777-8.5-0.777s-5.74,0.276-8.5,0.777V71.225c2.815-0.148,5.649-0.225,8.5-0.225S237.185,71.078,240,71.225z
		 M208,174.766l-72.104-72.104C156.659,87.214,181.268,76.664,208,72.725V174.766z M124.235,112.216l80.248,80.247
		c-4.689,3.255-8.765,7.331-12.02,12.02l-80.248-80.248C116.009,120.021,120.021,116.009,124.235,112.216z M112.216,338.765
		l80.248-80.248c3.255,4.689,7.331,8.764,12.02,12.02l-80.247,80.248C120.022,346.991,116.009,342.979,112.216,338.765z
		 M223,391.775V278.223c2.76,0.501,5.598,0.777,8.5,0.777s5.74-0.276,8.5-0.777v113.552c-2.815,0.148-5.649,0.225-8.5,0.225
		S225.815,391.922,223,391.775z M255,288.233l72.104,72.105c-20.763,15.448-45.372,25.997-72.104,29.936V288.233z M338.765,350.784
		l-80.248-80.248c4.689-3.255,8.765-7.331,12.02-12.02l80.248,80.248C346.991,342.978,342.979,346.991,338.765,350.784z"/>
</g>
</svg>