<?xml version="1.0" encoding="UTF-8"?>
<svg version="1.1" xmlns="http://www.w3.org/2000/svg" width="400" height="203">
<path d="M0 0 C7.22090789 6.34408336 9.64631315 12.52419203 11 22 C15.95 22.33 20.9 22.66 26 23 C26 54.68 26 86.36 26 119 C-5.68 119 -37.36 119 -70 119 C-70 106.79 -70 94.58 -70 82 C-73.3 81.01 -76.6 80.02 -80 79 C-84.79230416 75.72906224 -87.9162296 72.88417099 -89.62109375 67.265625 C-90.69959692 60.81684318 -90.00757734 54.98303782 -86.5625 49.375 C-82.54264462 43.95650881 -77.09143932 38.04571966 -71 35 C-70.67 31.04 -70.34 27.08 -70 23 C-48.55 23 -27.1 23 -5 23 C-8.09267012 16.81465976 -10.38957476 13.44615113 -16.84765625 10.859375 C-22.64135547 9.31581493 -28.74868559 9.873575 -34.6875 10 C-37.10789349 10.05103624 -39.52849748 10.09309593 -41.94921875 10.125 C-43.01487061 10.14820312 -44.08052246 10.17140625 -45.1784668 10.1953125 C-48.06664524 9.99538668 -49.61720443 9.60917794 -52 8 C-54.40355927 4.3946611 -54.75085268 1.20638975 -54 -3 C-52.5735644 -5.49067282 -51.65221878 -6.73306876 -48.9765625 -7.828125 C-32.58746883 -10.76836107 -14.13053354 -9.56395868 0 0 Z M-71 53 C-74.22193962 57.60823232 -74.22193962 57.60823232 -74.75 62.9375 C-74.5025 63.618125 -74.255 64.29875 -74 65 C-72.02 65.495 -72.02 65.495 -70 66 C-70 61.71 -70 57.42 -70 53 C-70.33 53 -70.66 53 -71 53 Z " fill="#050505" transform="translate(101,20)"/>
<path d="M0 0 C4.86017904 4.27001444 7.960871 8.882613 10 15 C10 15.99 10 16.98 10 18 C9.34 18 8.68 18 8 18 C8 21.3 8 24.6 8 28 C7.67 28 7.34 28 7 28 C6.97421875 27.154375 6.9484375 26.30875 6.921875 25.4375 C6.48139569 16.62791375 5.49408723 10.13237232 -0.9375 3.8125 C-10.9564126 -4.09034917 -23.44015089 -5.17783358 -35.6875 -5.1875 C-36.51572266 -5.19974609 -37.34394531 -5.21199219 -38.19726562 -5.22460938 C-42.51822721 -5.23498799 -46.14708614 -5.21143576 -50 -3 C-51.16977494 -0.65127469 -51.16977494 -0.65127469 -51 2 C-49.94589017 4.24986556 -49.94589017 4.24986556 -48 6 C-45.27772627 6.487612 -45.27772627 6.487612 -42.1875 6.25 C-41.02863281 6.2190625 -39.86976562 6.188125 -38.67578125 6.15625 C-36.25645369 6.0534093 -33.83718062 5.94927724 -31.41796875 5.84375 C-22.22244527 5.60042854 -14.80995864 6.89356838 -7 11.9375 C-3.17639148 15.88059629 -1.79768081 18.61392959 -1.5625 24.125 C-1.92687762 34.98345319 -6.45210543 43.3469083 -14 51 C-26.94660046 62.27607137 -45.34579876 70.20954827 -62.4375 70.5 C-63.19530762 70.51869141 -63.95311523 70.53738281 -64.73388672 70.55664062 C-69.89309864 70.49708923 -72.95045836 69.45237421 -77 66 C-78.25 62.8125 -78.25 62.8125 -78 59 C-72.65404234 47.11059016 -61.71953551 40.45203657 -50 36 C-36.42709869 31.03887056 -20.62021185 31.43274333 -7 36 C-6.67 34.02 -6.34 32.04 -6 30 C-7.37291868 29.51490207 -8.74846703 29.03724487 -10.125 28.5625 C-10.89070313 28.29566406 -11.65640625 28.02882812 -12.4453125 27.75390625 C-30.15792923 22.52678847 -49.21678777 27.43020898 -65 36 C-73.8643888 40.90542349 -82.5980697 46.99432264 -86 57 C-86.74854413 62.0547755 -86.80690805 66.46549917 -84 70.875 C-81.40816259 74.04776648 -78.43765734 75.5774749 -74.671875 77.078125 C-73 78 -73 78 -72 81 C-77.78997663 80.29818465 -82.3094463 77.73624434 -86.3125 73.625 C-89.92139289 68.01116661 -90.43949697 63.33680632 -89.65234375 56.80078125 C-87.53894845 47.72710202 -79.97386601 41.61923017 -73 36 C-72.01 35.505 -72.01 35.505 -71 35 C-70.67 31.04 -70.34 27.08 -70 23 C-48.55 23 -27.1 23 -5 23 C-8.09267012 16.81465976 -10.38957476 13.44615113 -16.84765625 10.859375 C-22.64135547 9.31581493 -28.74868559 9.873575 -34.6875 10 C-37.10789349 10.05103624 -39.52849748 10.09309593 -41.94921875 10.125 C-43.01487061 10.14820312 -44.08052246 10.17140625 -45.1784668 10.1953125 C-48.06664524 9.99538668 -49.61720443 9.60917794 -52 8 C-54.40355927 4.3946611 -54.75085268 1.20638975 -54 -3 C-52.5735644 -5.49067282 -51.65221878 -6.73306876 -48.9765625 -7.828125 C-32.58746883 -10.76836107 -14.13053354 -9.56395868 0 0 Z M-71 53 C-74.22193962 57.60823232 -74.22193962 57.60823232 -74.75 62.9375 C-74.5025 63.618125 -74.255 64.29875 -74 65 C-72.02 65.495 -72.02 65.495 -70 66 C-70 61.71 -70 57.42 -70 53 C-70.33 53 -70.66 53 -71 53 Z " fill="#020202" transform="translate(101,20)"/>
<path d="M0 0 C4.6190362 3.74816431 8.34501913 7.57633968 9.73828125 13.46484375 C11.00058805 28.0901915 8.92766552 39.61766025 -0.26171875 51.46484375 C-10.60698941 62.70100766 -23.99826074 69.56898438 -38.26171875 74.46484375 C-39.39685913 74.86872314 -39.39685913 74.86872314 -40.55493164 75.28076172 C-46.88167155 77.38113691 -52.67885153 77.98336742 -59.32421875 77.96484375 C-60.25298828 77.99320312 -61.18175781 78.0215625 -62.13867188 78.05078125 C-69.63996322 78.07183751 -75.49828923 76.08711782 -80.97363281 70.81713867 C-84.33773124 66.98175024 -85.09029636 63.0989265 -84.80078125 58.078125 C-82.96427932 49.17508303 -76.36761917 42.65416851 -69.26171875 37.46484375 C-53.17052284 27.24475986 -34.01853182 20.64596435 -14.85546875 24.07421875 C-10.39293673 25.13569481 -6.31014751 26.27907236 -2.26171875 28.46484375 C-2.59171875 30.44484375 -2.92171875 32.42484375 -3.26171875 34.46484375 C-6.72031125 35.61770792 -7.05017227 35.31769725 -10.26171875 34.02734375 C-25.78650194 29.13193766 -43.09887973 32.61527026 -57.26171875 39.77734375 C-64.86456894 44.15248085 -70.76676759 49.30995772 -74.26171875 57.46484375 C-74.52795416 61.19050084 -74.52795416 61.19050084 -73.26171875 64.46484375 C-67.48924142 69.15086622 -59.76369127 68.25304737 -52.72998047 67.7578125 C-37.04943506 65.89662017 -19.3819407 57.07147754 -8.50390625 45.61328125 C-2.60022191 37.95535928 0.55745188 29.65414938 0.11328125 19.91015625 C-0.46393243 16.14624203 -1.60795681 14.18494974 -4.26171875 11.46484375 C-10.52865894 7.45133525 -17.14803274 5.15138304 -24.61328125 5.4453125 C-25.7940625 5.47431641 -26.97484375 5.50332031 -28.19140625 5.53320312 C-30.66315628 5.61289485 -33.13456037 5.70411869 -35.60546875 5.80664062 C-37.37277344 5.8443457 -37.37277344 5.8443457 -39.17578125 5.8828125 C-40.78380615 5.94118286 -40.78380615 5.94118286 -42.42431641 6.00073242 C-45.26171875 5.46484375 -45.26171875 5.46484375 -47.64990234 3.10668945 C-49.26171875 0.46484375 -49.26171875 0.46484375 -49.13671875 -2.22265625 C-48.26171875 -4.53515625 -48.26171875 -4.53515625 -46.26171875 -6.53515625 C-32.64635261 -11.02132938 -11.71406618 -7.95099829 0 0 Z " fill="#C6C6C6" transform="translate(98.26171875,21.53515625)"/>
<path d="M0 0 C1.12921875 -0.020625 2.2584375 -0.04125 3.421875 -0.0625 C11.34831846 -0.0996262 16.70021016 0.28686281 22.6875 5.875 C27.45034508 12.21590383 27.15403175 20.70516988 27.01953125 28.28515625 C27.01081497 29.23125259 27.00209869 30.17734894 26.99311829 31.15211487 C26.97308181 33.16064565 26.94828075 35.16913389 26.91900635 37.17755127 C26.87533986 40.22627179 26.84672082 43.27480422 26.82177734 46.32373047 C26.77608821 51.41824757 26.70164483 56.51178109 26.61254883 61.60571289 C26.5787482 63.68700691 26.5509007 65.76840489 26.52856445 67.84985352 C26.49503764 70.91981604 26.4428818 73.98897203 26.38671875 77.05859375 C26.37713387 78.4429789 26.37713387 78.4429789 26.36735535 79.85533142 C26.2280004 85.97634939 25.52046201 91.1774061 21.375 95.9921875 C16.59327695 99.60338459 13.58889221 100.37541733 7.67578125 100.34765625 C5.86303711 100.34282227 5.86303711 100.34282227 4.01367188 100.33789062 C2.1197168 100.32532227 2.1197168 100.32532227 0.1875 100.3125 C-1.72385742 100.30573242 -1.72385742 100.30573242 -3.67382812 100.29882812 C-6.82426564 100.28702873 -9.97460949 100.27056597 -13.125 100.25 C-13.1481211 87.35927745 -13.16591389 74.4685598 -13.17681217 61.57782078 C-13.18204151 55.59280734 -13.18914008 49.60780804 -13.20043945 43.62280273 C-13.21126653 37.85216571 -13.21727645 32.08154232 -13.21987724 26.31089592 C-13.22173182 24.10397057 -13.22535304 21.897046 -13.23073006 19.69012642 C-13.2379381 16.61053959 -13.23899104 13.53100986 -13.23852539 10.45141602 C-13.24212067 9.52928818 -13.24571594 8.60716034 -13.24942017 7.65708923 C-13.23303148 -2.29030454 -8.76341244 0.0392099 0 0 Z M-2.125 10.25 C-2.125 36.65 -2.125 63.05 -2.125 90.25 C2.165 90.25 6.455 90.25 10.875 90.25 C15.37190693 85.75309307 15.99926075 84.07210071 16.00439453 78.08276367 C16.00754669 77.02703659 16.01069885 75.97130951 16.01394653 74.8835907 C16.0119223 73.73993546 16.00989807 72.59628021 16.0078125 71.41796875 C16.00876923 70.23463455 16.00972595 69.05130035 16.01071167 67.83210754 C16.01139318 65.31946764 16.00954091 62.80682599 16.00537109 60.29418945 C16.00007452 56.49100655 16.00528987 52.68794458 16.01171875 48.88476562 C16.01105694 46.43749974 16.00977367 43.99023394 16.0078125 41.54296875 C16.00983673 40.42158005 16.01186096 39.30019135 16.01394653 38.14482117 C15.99702741 32.29212859 15.85324048 26.4520512 15.55419922 20.60668945 C15.49738983 19.46206741 15.44058044 18.31744537 15.38204956 17.13813782 C15.09176323 14.28112797 15.09176323 14.28112797 13.58255005 12.41520691 C8.80281861 9.15358883 3.55969626 10.25 -2.125 10.25 Z " fill="#CCCCCC" transform="translate(300.125,40.75)"/>
<path d="M0 0 C5.28 0 10.56 0 16 0 C18.25052006 7.8768202 18.25052006 7.8768202 18.88208008 11.88916016 C19.09813652 13.24270599 19.09813652 13.24270599 19.31855774 14.62359619 C19.54178963 16.06675201 19.54178963 16.06675201 19.76953125 17.5390625 C19.93096115 18.56207458 20.09239105 19.58508667 20.25871277 20.63909912 C20.78180093 23.96694933 21.29767443 27.29586224 21.8125 30.625 C22.07703979 32.32308807 22.07703979 32.32308807 22.34692383 34.05548096 C24.69590655 49.14393638 26.95024506 64.24286548 29 79.375 C29.10559235 80.14886047 29.21118469 80.92272095 29.31997681 81.72003174 C29.61356726 83.88310642 29.90184026 86.04680268 30.1875 88.2109375 C30.34605469 89.41024902 30.50460937 90.60956055 30.66796875 91.84521484 C31 95 31 95 31 100 C27.7 100 24.4 100 21 100 C19.09601315 93.06404791 18.03793454 86.1172654 17 79 C10.73 78.67 4.46 78.34 -2 78 C-2.61692613 84.11742214 -2.61692613 84.11742214 -3.22631836 90.2355957 C-3.30503174 90.99960693 -3.38374512 91.76361816 -3.46484375 92.55078125 C-3.58267212 93.72120972 -3.58267212 93.72120972 -3.70288086 94.9152832 C-4 97 -4 97 -5 100 C-8.3 100 -11.6 100 -15 100 C-15.10920413 94.33098552 -14.73826663 88.96640374 -13.93359375 83.359375 C-13.76226677 82.12258499 -13.76226677 82.12258499 -13.58747864 80.86080933 C-13.21045219 78.15627795 -12.82458318 75.45310912 -12.4375 72.75 C-12.30605591 71.82112976 -12.17461182 70.89225952 -12.03918457 69.9352417 C-9.89826955 54.8131357 -7.61783989 39.71313278 -5.25 24.625 C-5.10174774 23.66944214 -4.95349548 22.71388428 -4.80075073 21.72937012 C-4.37879542 19.01903873 -3.94860746 16.31015145 -3.515625 13.6015625 C-3.39185989 12.80136688 -3.26809479 12.00117126 -3.14057922 11.17672729 C-2.47751016 7.09795593 -1.55558999 3.88897497 0 0 Z M7 15 C5.99440364 21.26084201 4.99854556 27.52317851 4.00927734 33.78662109 C3.6719733 35.91490288 3.33248396 38.04283957 2.99072266 40.17041016 C2.49840401 43.23771323 2.01409204 46.30619267 1.53125 49.375 C1.30157532 50.78954468 1.30157532 50.78954468 1.06726074 52.23266602 C0.92711548 53.13299561 0.78697021 54.0333252 0.64257812 54.9609375 C0.51822388 55.74259277 0.39386963 56.52424805 0.26574707 57.32958984 C-0.08657927 60.87000836 0 64.44209371 0 68 C5.28 68 10.56 68 16 68 C15.2739523 58.32832759 13.90104521 48.77777542 12.47094727 39.19018555 C12.05897438 36.41373945 11.65930961 33.63568035 11.25976562 30.85742188 C10.99814709 29.0910344 10.73580406 27.32475405 10.47265625 25.55859375 C10.29598167 24.31341225 10.29598167 24.31341225 10.11573792 23.04307556 C9.55248605 18.56644475 9.55248605 18.56644475 7 15 Z " fill="#E0E0E0" transform="translate(248,41)"/>
<path d="M0 0 C5.2092432 4.54423343 6.2983084 9.24992443 7 16 C7.60450161 25.09324759 7.60450161 25.09324759 5 29 C2.2572492 29.47114738 -0.19558897 29.17805784 -3 29 C-5.35571679 26.64428321 -4.39668734 20.70439214 -4.5234375 17.515625 C-5.02402534 13.82276391 -5.59027119 11.83435062 -8 9 C-10.38541692 8.21199998 -10.38541692 8.21199998 -13 8.375 C-13.86625 8.36210938 -14.7325 8.34921875 -15.625 8.3359375 C-18.1765626 8.79401905 -18.1765626 8.79401905 -19.62615967 11.109375 C-21.28934212 14.6087895 -21.36803063 17.04546294 -21.35644531 20.9140625 C-21.35848969 21.58951111 -21.36053406 22.26495972 -21.36264038 22.96087646 C-21.36563622 25.18253096 -21.34720661 27.4034343 -21.328125 29.625 C-21.32506481 31.1752911 -21.32319067 32.72558496 -21.32244873 34.27587891 C-21.31785301 37.52061535 -21.30345627 40.76510261 -21.28125 44.00976562 C-21.2529684 48.16248134 -21.24203734 52.31500108 -21.2375679 56.46780396 C-21.23340458 59.66774441 -21.22357948 62.86764557 -21.21169281 66.06756592 C-21.20600814 67.59852792 -21.20124355 69.12949363 -21.19742584 70.66046143 C-21.19052621 72.80235361 -21.17687649 74.94409426 -21.16113281 77.0859375 C-21.15430481 78.3032959 -21.14747681 79.5206543 -21.14044189 80.77490234 C-21.01568463 83.63981927 -20.65959893 86.21599457 -20 89 C-18.4438453 89.30518762 -16.87929892 89.56775915 -15.3125 89.8125 C-14.00732422 90.03873047 -14.00732422 90.03873047 -12.67578125 90.26953125 C-9.79900931 90.22131028 -9.79900931 90.22131028 -7.37695312 87.9375 C-4.42345183 84.28748689 -4.35036838 82.37983912 -4.29296875 77.73046875 C-4.27784744 77.04946609 -4.26272614 76.36846344 -4.24714661 75.66682434 C-4.20439922 73.50670937 -4.19544565 71.34799507 -4.1875 69.1875 C-4.16434511 67.71675998 -4.13897769 66.24605302 -4.11132812 64.77539062 C-4.0486084 61.18362029 -4.01616875 57.59231596 -4 54 C-6.31 54 -8.62 54 -11 54 C-12.49106457 51.01787087 -12.11941467 48.28390342 -12 45 C-11 44 -11 44 -9.23413086 43.88647461 C-8.48526611 43.89171143 -7.73640137 43.89694824 -6.96484375 43.90234375 C-6.15595703 43.90556641 -5.34707031 43.90878906 -4.51367188 43.91210938 C-3.66353516 43.92048828 -2.81339844 43.92886719 -1.9375 43.9375 C-1.08349609 43.94201172 -0.22949219 43.94652344 0.65039062 43.95117188 C2.76695663 43.96299627 4.88348685 43.98093231 7 44 C7.04976354 49.3893909 7.08589047 54.77864544 7.10986328 60.16821289 C7.11986648 61.99831475 7.13347335 63.82840084 7.15087891 65.65844727 C7.17537891 68.30228588 7.18654013 70.94591157 7.1953125 73.58984375 C7.20563507 74.39646957 7.21595764 75.2030954 7.22659302 76.03416443 C7.22787941 82.6774557 6.94015796 89.88904983 2.8125 95.375 C-3.10503215 100.89803 -8.24372058 101.51751024 -16.12890625 101.28125 C-21.55385929 100.74982603 -25.21994608 99.16241268 -28.875 95 C-33.02994723 89.13419215 -32.35089256 82.96079418 -32.5625 76 C-32.58301422 75.33981873 -32.60352844 74.67963745 -32.62466431 73.99945068 C-32.98736052 61.99999831 -33.13280471 49.99823641 -33.17623901 37.99365234 C-33.18370167 36.09259532 -33.19434411 34.19154792 -33.20828247 32.29052734 C-33.22627125 29.59203282 -33.23031052 26.89386032 -33.23046875 24.1953125 C-33.23760895 23.39948761 -33.24474915 22.60366272 -33.25210571 21.78372192 C-33.22479698 14.92614651 -32.55762218 8.54883629 -28.9375 2.625 C-20.81163188 -4.63641406 -9.48819115 -4.76220281 0 0 Z " fill="#E0E0E0" transform="translate(219,42)"/>
<path d="M0 0 C3.86447516 3.3166002 5.7286683 7.12466995 7 12 C7.22381466 14.96502137 7.19046645 17.90383037 7.125 20.875 C7.11597656 21.65875 7.10695313 22.4425 7.09765625 23.25 C7.07428063 25.16680055 7.03841653 27.08344191 7 29 C5.35425434 29.02688151 3.70838587 29.04634123 2.0625 29.0625 C0.68771484 29.07990234 0.68771484 29.07990234 -0.71484375 29.09765625 C-3 29 -3 29 -4 28 C-4.20340077 24.87742144 -4.34635819 21.76259078 -4.4296875 18.63476562 C-4.62268 14.52161294 -5.01056751 11.93124403 -8 9 C-12.14017122 7.43344873 -15.01100249 8.27747835 -19 10 C-21.86126459 15.72252918 -20.72100566 24.78481942 -20 31 C-18.7198784 34.65149441 -16.95962604 36.56199387 -14 39 C-13.14148438 39.71929687 -12.28296875 40.43859375 -11.3984375 41.1796875 C-9.50712586 42.72712429 -7.60467611 44.26104646 -5.69140625 45.78125 C1.66144511 51.84281687 6.21318413 57.89297077 7.28417969 67.56689453 C7.40050408 70.23887577 7.40985449 72.88838575 7.375 75.5625 C7.38660156 76.45646484 7.39820313 77.35042969 7.41015625 78.27148438 C7.3786721 85.44462299 6.32093621 91.19044564 1.625 96.875 C-4.59259753 101.90829323 -11.30162747 101.74380411 -19 101 C-23.7726261 99.67927328 -26.35565516 97.80956147 -29.4375 93.9375 C-31.34006606 90.36067581 -32.12598454 87.76382027 -32.09765625 83.76953125 C-32.09282227 82.56586914 -32.09282227 82.56586914 -32.08789062 81.33789062 C-32.07951172 80.50451172 -32.07113281 79.67113281 -32.0625 78.8125 C-32.05573242 77.5450293 -32.05573242 77.5450293 -32.04882812 76.25195312 C-32.03705403 74.16793845 -32.0191189 72.08396023 -32 70 C-29.01787087 68.50893543 -26.28390342 68.88058533 -23 69 C-20.72312123 71.27687877 -21.54265632 76.62322999 -21.37890625 79.703125 C-21.01287386 82.88798413 -20.48097555 85.16857556 -19 88 C-15.73083718 90.17944188 -15.13719614 90.23305854 -11.4375 89.8125 C-10.65246094 89.73644531 -9.86742187 89.66039062 -9.05859375 89.58203125 C-6.61952033 89.13317428 -6.61952033 89.13317428 -5 86 C-4.54507475 82.76582553 -4.62968796 79.51281955 -4.625 76.25 C-4.60050781 75.36828125 -4.57601563 74.4865625 -4.55078125 73.578125 C-4.51902978 66.4657953 -6.09982017 62.54236251 -10.640625 56.99609375 C-13.64422638 54.0872662 -16.64610556 51.47945209 -20.0625 49.0625 C-25.78377072 44.90763543 -29.66807307 39.66902165 -32 33 C-32.42839698 29.23694652 -32.37021168 25.4726692 -32.375 21.6875 C-32.39949219 20.68009766 -32.42398437 19.67269531 -32.44921875 18.63476562 C-32.47379131 12.34828546 -31.8946049 7.12928596 -28 2 C-20.16526568 -4.4045937 -8.69543959 -4.97148259 0 0 Z " fill="#DEDEDE" transform="translate(369,42)"/>
<path d="M0 0 C11.22 0 22.44 0 34 0 C35 7 35 7 34 10 C26.41 10 18.82 10 11 10 C11 21.22 11 32.44 11 44 C17.6 44.33 24.2 44.66 31 45 C31 48.3 31 51.6 31 55 C21.1 55.495 21.1 55.495 11 56 C11 67.22 11 78.44 11 90 C18.59 90 26.18 90 34 90 C35.0036454 95.01822701 34.79132273 96.46900722 33 101 C28.4793661 101.07406517 23.959084 101.12856045 19.43798828 101.16479492 C17.89951426 101.17989711 16.36108339 101.20038046 14.82275391 101.22631836 C12.61349859 101.26264074 10.40481152 101.27971119 8.1953125 101.29296875 C7.16085495 101.31619453 7.16085495 101.31619453 6.10549927 101.33988953 C4.16455078 101.34057617 4.16455078 101.34057617 1 101 C-1.42340994 97.3648851 -1.24799676 95.68277934 -1.24291992 91.35498047 C-1.24481827 90.68268906 -1.24671661 90.01039764 -1.24867249 89.31773376 C-1.25238819 87.08410106 -1.24164099 84.85079169 -1.23046875 82.6171875 C-1.22927423 81.04468829 -1.22882436 79.47218836 -1.2290802 77.89968872 C-1.22751248 74.58575019 -1.21921904 71.27191921 -1.20581055 67.95800781 C-1.18912313 63.78845101 -1.18507094 59.61901463 -1.18563652 55.44942856 C-1.18495893 36.93531163 -0.89132858 18.4968507 0 0 Z " fill="#D0D0D0" transform="translate(143,41)"/>
<path d="M0 0 C3.54965477 1.43676503 5.07087942 3.11301898 7.125 6.3125 C7.62257812 7.07175781 8.12015625 7.83101563 8.6328125 8.61328125 C13.42028717 16.97084417 13.45830116 27.2253878 11.125 36.46484375 C8.50480778 43.1618482 4.78414118 48.66767598 0 54 C-0.61875 54.69996094 -1.2375 55.39992187 -1.875 56.12109375 C-9.37023082 64.1149992 -19.52258022 70.81735194 -30.7265625 71.43359375 C-32.35928694 71.4506013 -33.9922492 71.45175417 -35.625 71.4375 C-36.44484375 71.45748047 -37.2646875 71.47746094 -38.109375 71.49804688 C-44.84362451 71.49263349 -48.35107064 69.37009469 -53.375 64.875 C-55.81154579 60.56418821 -55.95259493 56.82943478 -55 52 C-50.53362616 42.59533357 -40.4884544 36.3899505 -31 33 C-22.23004911 29.9366439 -13.45064367 30.10111805 -4.6796875 33.05078125 C-3 34 -3 34 -2 37 C-3.4375 39.1875 -3.4375 39.1875 -5 41 C-6.26070312 40.76216797 -6.26070312 40.76216797 -7.546875 40.51953125 C-18.49266607 38.87270974 -28.80846626 38.98202683 -38.09375 45.4609375 C-42.04255904 48.64911529 -44.69195586 51.4124292 -45.3125 56.625 C-45.209375 57.40875 -45.10625 58.1925 -45 59 C-40.27420583 62.15052944 -35.53123788 61.52331472 -30 61 C-17.74125448 58.25942369 -8.72849958 50.38892487 -2 40 C1.39235679 33.31084576 3.24458032 26.49164853 2 19 C1.14384031 16.55821722 0.1563502 14.30731832 -1.02734375 12.0078125 C-2.01858898 9.96162756 -2.67450661 8.25132925 -3 6 C-1.5625 2.75 -1.5625 2.75 0 0 Z " fill="#BDBDBD" transform="translate(108,59)"/>
<path d="M0 0 C1.32 0.66 2.64 1.32 4 2 C3.34 2 2.68 2 2 2 C0.07271907 7.47384734 0.07271907 7.47384734 0.72265625 13.05078125 C1.73745565 14.74938813 2.86531477 16.3790211 4 18 C6.41577962 25.24733886 5.18583824 32.29727651 2.390625 39.265625 C-3.15478321 50.16951754 -12.45052228 58.96202471 -24 63 C-27.34919829 64.03797468 -30.49918253 64.19748774 -34 64.25 C-35.03125 64.27578125 -36.0625 64.3015625 -37.125 64.328125 C-40.32882325 63.96247126 -41.65087721 63.14583332 -44 61 C-43.77887402 55.58241342 -42.59054524 52.61703403 -38.8828125 48.640625 C-32.05445653 42.69060527 -25.50614823 40.85727316 -16.625 40.875 C-14.69527344 40.87113281 -14.69527344 40.87113281 -12.7265625 40.8671875 C-9.3825749 40.98636526 -6.27902051 41.36043872 -3 42 C-2.34 40.35 -1.68 38.7 -1 37 C-11.78897385 32.52457381 -20.41116671 33.37980501 -31.34765625 37.125 C-34 38 -34 38 -36 38 C-35.796875 36.1640625 -35.796875 36.1640625 -35 34 C-32.953125 32.6484375 -32.953125 32.6484375 -30.25 31.375 C-16.70833958 24.34883289 -5.25939602 14.79205129 0 0 Z " fill="#040404" transform="translate(106,57)"/>
<path d="M0 0 C4.6190362 3.74816431 8.34501913 7.57633968 9.73828125 13.46484375 C10.96917021 27.72617788 9.24702685 40.0975706 -0.26171875 51.46484375 C-3.26171875 51.46484375 -3.26171875 51.46484375 -6.26171875 49.46484375 C-5.93171875 47.48484375 -5.60171875 45.50484375 -5.26171875 43.46484375 C-4.60171875 43.46484375 -3.94171875 43.46484375 -3.26171875 43.46484375 C-3.46667969 42.90925781 -3.67164063 42.35367188 -3.8828125 41.78125 C-4.37950039 38.7447972 -3.55012175 37.2049974 -2.32421875 34.40234375 C0.35585769 27.41733616 1.28830702 21.01698613 -1.76171875 14.02734375 C-6.74472462 8.91976273 -14.22319966 5.65750296 -21.35791016 5.31713867 C-22.43218262 5.35943604 -23.50645508 5.4017334 -24.61328125 5.4453125 C-25.7940625 5.47431641 -26.97484375 5.50332031 -28.19140625 5.53320312 C-30.66315628 5.61289485 -33.13456037 5.70411869 -35.60546875 5.80664062 C-37.37277344 5.8443457 -37.37277344 5.8443457 -39.17578125 5.8828125 C-40.24779785 5.92172607 -41.31981445 5.96063965 -42.42431641 6.00073242 C-45.26171875 5.46484375 -45.26171875 5.46484375 -47.64990234 3.10668945 C-49.26171875 0.46484375 -49.26171875 0.46484375 -49.13671875 -2.22265625 C-48.26171875 -4.53515625 -48.26171875 -4.53515625 -46.26171875 -6.53515625 C-32.64635261 -11.02132938 -11.71406618 -7.95099829 0 0 Z " fill="#8E8E8E" transform="translate(98.26171875,21.53515625)"/>
<path d="M0 0 C4.86017904 4.27001444 7.960871 8.882613 10 15 C10 15.99 10 16.98 10 18 C9.34 18 8.68 18 8 18 C8 21.3 8 24.6 8 28 C7.67 28 7.34 28 7 28 C6.97421875 27.154375 6.9484375 26.30875 6.921875 25.4375 C6.48139569 16.62791375 5.49408723 10.13237232 -0.9375 3.8125 C-10.9564126 -4.09034917 -23.44015089 -5.17783358 -35.6875 -5.1875 C-36.51572266 -5.19974609 -37.34394531 -5.21199219 -38.19726562 -5.22460938 C-42.51822721 -5.23498799 -46.14708614 -5.21143576 -50 -3 C-51.16977494 -0.65127469 -51.16977494 -0.65127469 -51 2 C-49.94589017 4.24986556 -49.94589017 4.24986556 -48 6 C-45.27772627 6.487612 -45.27772627 6.487612 -42.1875 6.25 C-41.02863281 6.2190625 -39.86976562 6.188125 -38.67578125 6.15625 C-36.25645369 6.0534093 -33.83718062 5.94927724 -31.41796875 5.84375 C-22.22244527 5.60042854 -14.80995864 6.89356838 -7 11.9375 C-3.05754136 16.00316047 -1.81175565 18.6980701 -1.6875 24.375 C-1.80451658 28.92632905 -2.47888777 32.72187186 -4 37 C-4.66 36.67 -5.32 36.34 -6 36 C-6 34.02 -6 32.04 -6 30 C-7.37291868 29.51490207 -8.74846703 29.03724487 -10.125 28.5625 C-10.89070313 28.29566406 -11.65640625 28.02882812 -12.4453125 27.75390625 C-30.15792923 22.52678847 -49.21678777 27.43020898 -65 36 C-73.8643888 40.90542349 -82.5980697 46.99432264 -86 57 C-86.74854413 62.0547755 -86.80690805 66.46549917 -84 70.875 C-81.40816259 74.04776648 -78.43765734 75.5774749 -74.671875 77.078125 C-73 78 -73 78 -72 81 C-77.78997663 80.29818465 -82.3094463 77.73624434 -86.3125 73.625 C-89.92139289 68.01116661 -90.43949697 63.33680632 -89.65234375 56.80078125 C-87.53894845 47.72710202 -79.97386601 41.61923017 -73 36 C-72.01 35.505 -72.01 35.505 -71 35 C-70.67 31.04 -70.34 27.08 -70 23 C-48.55 23 -27.1 23 -5 23 C-8.09267012 16.81465976 -10.38957476 13.44615113 -16.84765625 10.859375 C-22.64135547 9.31581493 -28.74868559 9.873575 -34.6875 10 C-37.10789349 10.05103624 -39.52849748 10.09309593 -41.94921875 10.125 C-43.01487061 10.14820312 -44.08052246 10.17140625 -45.1784668 10.1953125 C-48.06664524 9.99538668 -49.61720443 9.60917794 -52 8 C-54.40355927 4.3946611 -54.75085268 1.20638975 -54 -3 C-52.5735644 -5.49067282 -51.65221878 -6.73306876 -48.9765625 -7.828125 C-32.58746883 -10.76836107 -14.13053354 -9.56395868 0 0 Z " fill="#0A0A0A" transform="translate(101,20)"/>
<path d="M0 0 C3.43595166 1.52708963 6.11912454 3.59927045 9 6 C9 5.34 9 4.68 9 4 C9.66 4 10.32 4 11 4 C11 3.34 11 2.68 11 2 C11.99 2 12.98 2 14 2 C14 1.34 14 0.68 14 0 C17.37534275 1.37278091 18.6632735 2.5776937 20.1875 5.875 C20.67283203 6.89207031 20.67283203 6.89207031 21.16796875 7.9296875 C23.33323401 13.31743673 23.21827242 18.5152391 23.25 24.25 C23.270625 25.16652344 23.29125 26.08304688 23.3125 27.02734375 C23.35425623 34.34512375 22.4271457 40.06187626 17.625 45.875 C11.40740247 50.90829323 4.69837253 50.74380411 -3 50 C-7.7726261 48.67927328 -10.35565516 46.80956147 -13.4375 42.9375 C-15.34006606 39.36067581 -16.12598454 36.76382027 -16.09765625 32.76953125 C-16.09282227 31.56586914 -16.09282227 31.56586914 -16.08789062 30.33789062 C-16.07951172 29.50451172 -16.07113281 28.67113281 -16.0625 27.8125 C-16.05798828 26.96751953 -16.05347656 26.12253906 -16.04882812 25.25195312 C-16.03705403 23.16793845 -16.0191189 21.08396023 -16 19 C-13.01787087 17.50893543 -10.28390342 17.88058533 -7 18 C-4.72312123 20.27687877 -5.54265632 25.62322999 -5.37890625 28.703125 C-5.01287386 31.88798413 -4.48097555 34.16857556 -3 37 C0.26916282 39.17944188 0.86280386 39.23305854 4.5625 38.8125 C5.34753906 38.73644531 6.13257813 38.66039062 6.94140625 38.58203125 C9.38047967 38.13317428 9.38047967 38.13317428 11 35 C11.45492525 31.76582553 11.37031204 28.51281955 11.375 25.25 C11.39949219 24.36828125 11.42398437 23.4865625 11.44921875 22.578125 C11.48140769 15.36780301 9.9095876 11.29989814 5.078125 5.8203125 C4.47484375 5.26085937 3.8715625 4.70140625 3.25 4.125 C2.15329794 3.09741782 1.06569353 2.05970649 0 1 C0 0.67 0 0.34 0 0 Z " fill="#808080" transform="translate(353,93)"/>
<path d="M0 0 C5.2092432 4.54423343 6.2983084 9.24992443 7 16 C7.60450161 25.09324759 7.60450161 25.09324759 5 29 C2.2572492 29.47114738 -0.19558897 29.17805784 -3 29 C-5.35571679 26.64428321 -4.39668734 20.70439214 -4.5234375 17.515625 C-5.02402534 13.82276391 -5.59027119 11.83435062 -8 9 C-11.38345263 8.05396884 -14.57860182 8.24867945 -18 9 C-20.08216876 11.3549963 -20.08216876 11.3549963 -21 14 C-21.66 14 -22.32 14 -23 14 C-23 12.02 -23 10.04 -23 8 C-23.99 7.67 -24.98 7.34 -26 7 C-26 6.34 -26 5.68 -26 5 C-30.30356619 9.30356619 -30.38835873 16.18940795 -31 22 C-31.66 22 -32.32 22 -33 22 C-32.53488372 6.53488372 -32.53488372 6.53488372 -26.1875 0.1875 C-17.77947953 -4.37685397 -8.44324988 -4.23773801 0 0 Z " fill="#C8C8C8" transform="translate(219,42)"/>
<path d="M0 0 C-0.33 1.98 -0.66 3.96 -1 6 C-4.4585925 7.15286417 -4.78845352 6.8528535 -8 5.5625 C-21.94956046 1.16380648 -38.73709425 3.34817309 -51.67578125 9.75390625 C-54.82993005 11.43448164 -57.91683817 13.19370317 -61 15 C-63.67180222 16.40868307 -66.04101486 17.36593176 -69 18 C-69.33 16.02 -69.66 14.04 -70 12 C-59.48861414 3.28173291 -48.1380386 -1.01059799 -35 -4 C-33.74703125 -4.29197266 -33.74703125 -4.29197266 -32.46875 -4.58984375 C-21.62399926 -6.3915824 -9.75695777 -5.26784105 0 0 Z " fill="#D9D9D9" transform="translate(96,50)"/>
<path d="M0 0 C2.17235104 1.88270423 2.34321533 2.87744589 2.875 5.625 C3.865 6.285 4.855 6.945 5.875 7.625 C5.215 8.945 4.555 10.265 3.875 11.625 C3.25625 11.46 2.6375 11.295 2 11.125 C-0.08563386 10.54865356 -0.08563386 10.54865356 -2.125 10.625 C-3.03894531 10.45484375 -3.95289063 10.2846875 -4.89453125 10.109375 C-8.47915274 9.57831996 -11.95436233 9.61818346 -15.57421875 9.703125 C-16.75177734 9.72890625 -17.92933594 9.7546875 -19.14257812 9.78125 C-21.60135041 9.84406057 -24.05977338 9.92233984 -26.51757812 10.015625 C-27.69126953 10.03625 -28.86496094 10.056875 -30.07421875 10.078125 C-31.13987061 10.11067383 -32.20552246 10.14322266 -33.3034668 10.17675781 C-36.125 9.625 -36.125 9.625 -38.51098633 7.26464844 C-40.125 4.625 -40.125 4.625 -40 1.9375 C-39.125 -0.375 -39.125 -0.375 -37.125 -2.375 C-26.51720932 -5.8701969 -10.0341898 -4.41504351 0 0 Z " fill="#A0A0A0" transform="translate(89.125,17.375)"/>
<path d="M0 0 C3.54965477 1.43676503 5.07087942 3.11301898 7.125 6.3125 C7.62257813 7.07175781 8.12015625 7.83101563 8.6328125 8.61328125 C12.98511962 16.21116596 13.00920213 24.45215598 12 33 C10.18078657 39.6245461 7.11244905 45.5167346 3 51 C0.5625 50.625 0.5625 50.625 -2 50 C-2.33 49.34 -2.66 48.68 -3 48 C-2.34 48 -1.68 48 -1 48 C-1.37125 46.948125 -1.37125 46.948125 -1.75 45.875 C-2.09959252 41.85468598 -0.39182187 40.11661638 2 37 C1.34 36.67 0.68 36.34 0 36 C0.33 35.05125 0.66 34.1025 1 33.125 C3.12793454 25.47677152 2.60147763 19.0573508 -1.02734375 12.0078125 C-2.01858898 9.96162756 -2.67450661 8.25132925 -3 6 C-1.5625 2.75 -1.5625 2.75 0 0 Z " fill="#9D9D9D" transform="translate(108,59)"/>
<path d="M0 0 C0.495 1.485 0.495 1.485 1 3 C-0.4375 5.1875 -0.4375 5.1875 -2 7 C-2.84046875 6.84144531 -3.6809375 6.68289062 -4.546875 6.51953125 C-15.31799587 4.89898931 -25.81014994 4.89332581 -34.94140625 11.37890625 C-36.34724536 12.52380075 -37.68380814 13.7530814 -39 15 C-41.9719385 13.87548273 -44.33440687 12.77706209 -47 11 C-35.31220275 -0.15653374 -15.55274973 -8.78911206 0 0 Z " fill="#D9D9D9" transform="translate(105,93)"/>
<path d="M0 0 C0.33 0 0.66 0 1 0 C1 2.97 1 5.94 1 9 C2.98 9 4.96 9 7 9 C7 9.66 7 10.32 7 11 C7.99 11 8.98 11 10 11 C10 10.34 10 9.68 10 9 C10.66 9 11.32 9 12 9 C13.12109375 10.43359375 13.12109375 10.43359375 14.4375 12.4375 C17.83343588 17.17327162 22.02041598 20.47750687 26.609375 24.01953125 C29 26 29 26 31 29 C30.67 29.66 30.34 30.32 30 31 C29.01 31 28.02 31 27 31 C27 31.66 27 32.32 27 33 C26.34 33 25.68 33 25 33 C25 33.66 25 34.32 25 35 C22.88608838 34.05238445 21.2618526 33.28679094 19.6875 31.5625 C17.94807076 29.74481341 17.94807076 29.74481341 14.8125 28.875 C8.45796439 26.31159922 4.38667652 20.34001663 1 14.625 C-0.35788322 9.70267333 -0.24762579 5.07174293 0 0 Z M5 11 C4.67 11.66 4.34 12.32 4 13 C4.99 12.67 5.98 12.34 7 12 C6.34 11.67 5.68 11.34 5 11 Z " fill="#A6A6A6" transform="translate(337,64)"/>
<path d="M0 0 C0.66 0 1.32 0 2 0 C1.25 4.75 1.25 4.75 -1 7 C-1.64767793 9.57061311 -1.64767793 9.57061311 -2 12 C-0.68 12.33 0.64 12.66 2 13 C-2.24741987 22.5566947 -11.98740508 28.50420588 -21.3125 32.375 C-23.97850737 32.99500171 -26.27339621 33.16038846 -29 33 C-27.515 32.505 -27.515 32.505 -26 32 C-26.33 30.02 -26.66 28.04 -27 26 C-28.32 25.67 -29.64 25.34 -31 25 C-30.23816406 24.72027344 -29.47632812 24.44054687 -28.69140625 24.15234375 C-15.60900374 19.07290907 -7.74127699 11.61191549 0 0 Z " fill="#DFDFDF" transform="translate(108,96)"/>
<path d="M0 0 C0.66 0.33 1.32 0.66 2 1 C2.625 3.0625 2.625 3.0625 3 5 C4.32 5 5.64 5 7 5 C6.59007813 5.53109375 6.18015625 6.0621875 5.7578125 6.609375 C5.21898438 7.31578125 4.68015625 8.0221875 4.125 8.75 C3.32449219 9.79414062 3.32449219 9.79414062 2.5078125 10.859375 C0.06562671 14.32651959 -1.01459867 16.18247471 -0.9375 20.5 C0.16582573 24.61908272 1.47398279 25.73973255 5 28 C3.02 28.99 3.02 28.99 1 30 C1 31.65 1 33.3 1 35 C2.98 35.33 4.96 35.66 7 36 C4.53352921 36.89486468 3.33374346 37.11463103 0.81640625 36.25 C-4.35584138 33.38150911 -8.69625249 30.63869629 -11 25 C-12.28076411 19.14789324 -11.27129172 14.83855708 -8.3125 9.6875 C-5.87255627 6.00729984 -3.30638255 2.91739636 0 0 Z " fill="#999999" transform="translate(25,62)"/>
<path d="M0 0 C0.66 0 1.32 0 2 0 C3.79738043 7.99322841 4.31518182 15.95348052 0.265625 23.28125 C-1.39672901 25.53876779 -2.76626972 27.2643312 -5 29 C-8.453125 29.390625 -8.453125 29.390625 -12.25 29.25 C-13.51328125 29.21390625 -14.7765625 29.1778125 -16.078125 29.140625 C-17.52445312 29.07101563 -17.52445312 29.07101563 -19 29 C-16.49332774 26.97957186 -13.99544708 24.99674792 -11.375 23.125 C-6.76528841 19.00052121 -5.98331817 15.01924749 -5.44140625 9.03515625 C-4.62518866 5.27188756 -2.47284023 2.89503246 0 0 Z " fill="#DDDDDD" transform="translate(115,106)"/>
<path d="M0 0 C0.66 0.66 1.32 1.32 2 2 C4.84460257 2.11961919 7.59794278 2.13987852 10.4375 2.0625 C18.63637247 1.87879082 18.63637247 1.87879082 22 3 C21.95875 3.94875 21.9175 4.8975 21.875 5.875 C21.65026182 9.10244856 21.65026182 9.10244856 24 11 C24 11.33 24 11.66 24 12 C24.78375 11.01 25.5675 10.02 26.375 9 C27.674375 7.515 27.674375 7.515 29 6 C29.66 6 30.32 6 31 6 C31.33745354 8.39531756 31.6700829 10.79114268 32 13.1875 C32.14308594 14.19780273 32.14308594 14.19780273 32.2890625 15.22851562 C32.78940118 18.8917095 33 22.28235944 33 26 C29.7 26 26.4 26 23 26 C21.09601315 19.06404791 20.03793454 12.1172654 19 5 C12.4 4.67 5.8 4.34 -1 4 C-0.67 2.68 -0.34 1.36 0 0 Z " fill="#AFAFAF" transform="translate(246,115)"/>
<path d="M0 0 C0.33 0 0.66 0 1 0 C1.08770383 3.85402129 1.14062735 7.70778291 1.1875 11.5625 C1.21263672 12.64853516 1.23777344 13.73457031 1.26367188 14.85351562 C1.32679012 21.77548329 1.2029036 27.27996093 -3.5 32.7421875 C-8.28172305 36.35338459 -11.28610779 37.12541733 -17.19921875 37.09765625 C-18.40771484 37.09443359 -19.61621094 37.09121094 -20.86132812 37.08789062 C-22.7552832 37.07532227 -22.7552832 37.07532227 -24.6875 37.0625 C-26.59885742 37.05573242 -26.59885742 37.05573242 -28.54882812 37.04882812 C-31.69926564 37.03702873 -34.84960949 37.02056597 -38 37 C-38 35.35 -38 33.7 -38 32 C-37.61481201 32.48895752 -37.22962402 32.97791504 -36.83276367 33.48168945 C-34.35834734 35.53156226 -32.85843108 35.34571985 -29.67578125 35.29296875 C-28.64775391 35.28330078 -27.61972656 35.27363281 -26.56054688 35.26367188 C-25.48869141 35.23853516 -24.41683594 35.21339844 -23.3125 35.1875 C-21.68731445 35.16719727 -21.68731445 35.16719727 -20.02929688 35.14648438 C-17.35236595 35.11110643 -14.67643162 35.06174189 -12 35 C-12 33.68 -12 32.36 -12 31 C-13.32 30.67 -14.64 30.34 -16 30 C-16 29.01 -16 28.02 -16 27 C-15.401875 26.814375 -14.80375 26.62875 -14.1875 26.4375 C-10.90018201 24.27726247 -10.35145313 21.64892345 -9 18 C-8.01 18.33 -7.02 18.66 -6 19 C-6.33 19.99 -6.66 20.98 -7 22 C-7 22.66 -7 23.32 -7 24 C-8.29233607 25.37310707 -9.62437146 26.71034824 -11 28 C-10.38125 27.649375 -9.7625 27.29875 -9.125 26.9375 C-8.42375 26.628125 -7.7225 26.31875 -7 26 C-6.34 26.33 -5.68 26.66 -5 27 C-4.505 25.515 -4.505 25.515 -4 24 C-3.34 24.99 -2.68 25.98 -2 27 C-0.87743029 21.39658479 -0.67278683 15.8181699 -0.4375 10.125 C-0.37272461 8.66320312 -0.37272461 8.66320312 -0.30664062 7.171875 C-0.20117726 4.78137198 -0.09905825 2.39077556 0 0 Z " fill="#818181" transform="translate(325,104)"/>
<path d="M0 0 C10.47840945 -0.41851635 20.57888628 -0.0865168 30 5 C29.67 6.98 29.34 8.96 29 11 C25.54951058 12.15016314 24.96992193 11.82763526 21.6875 10.625 C15.22887621 8.52953539 8.74534807 8.28186613 2 8 C2 7.67 2 7.34 2 7 C3.65 6.67 5.3 6.34 7 6 C6.67 4.35 6.34 2.7 6 1 C4.02 1 2.04 1 0 1 C0 0.67 0 0.34 0 0 Z " fill="#ABABAB" transform="translate(66,45)"/>
<path d="M0 0 C0 0.99 0 1.98 0 3 C1.32 3.66 2.64 4.32 4 5 C4 5.33 4 5.66 4 6 C-13.85649203 9.25968109 -13.85649203 9.25968109 -22 10 C-22 9.34 -22 8.68 -22 8 C-22.66 8 -23.32 8 -24 8 C-23.67 6.35 -23.34 4.7 -23 3 C-15.17683695 0.70629774 -8.15475474 -0.433422 0 0 Z " fill="#EFEFEF" transform="translate(72,46)"/>
<path d="M0 0 C0.66 0.66 1.32 1.32 2 2 C1.67 2.66 1.34 3.32 1 4 C1.66 4 2.32 4 3 4 C3 3.34 3 2.68 3 2 C5 2 5 2 6.625 3.5 C7.07875 3.995 7.5325 4.49 8 5 C8.33 3.35 8.66 1.7 9 0 C9.33 0 9.66 0 10 0 C9.8590651 2.43787385 9.71245458 4.87517853 9.5625 7.3125 C9.50352539 8.34793945 9.50352539 8.34793945 9.44335938 9.40429688 C9.25072585 12.47161535 8.97677283 15.06968152 8 18 C4.7 18 1.4 18 -2 18 C-2.23268915 11.71739294 -1.40454548 6.11980533 0 0 Z " fill="#B0B0B0" transform="translate(235,123)"/>
<path d="M0 0 C0.33 0 0.66 0 1 0 C1 2.97 1 5.94 1 9 C2.98 9 4.96 9 7 9 C7 9.66 7 10.32 7 11 C7.99 11 8.98 11 10 11 C10 10.34 10 9.68 10 9 C10.66 9 11.32 9 12 9 C15.875 15.625 15.875 15.625 17 19 C15.0625 19.5625 15.0625 19.5625 13 20 C12.67 19.67 12.34 19.34 12 19 C11.34 19.99 10.68 20.98 10 22 C6.91678999 21.6994518 5.44274426 21.53129311 3.41796875 19.1015625 C0.15922758 12.54269932 -0.62326833 7.28531428 0 0 Z M5 11 C4.67 11.66 4.34 12.32 4 13 C4.99 12.67 5.98 12.34 7 12 C6.34 11.67 5.68 11.34 5 11 Z " fill="#BCBCBC" transform="translate(337,64)"/>
<path d="M0 0 C0.66 0 1.32 0 2 0 C1.25 4.75 1.25 4.75 -1 7 C-1.64767793 9.57061311 -1.64767793 9.57061311 -2 12 C-0.68 12.33 0.64 12.66 2 13 C0.52651292 16.42527887 -1.40907846 18.64955058 -4.0625 21.25 C-4.77535156 21.95640625 -5.48820312 22.6628125 -6.22265625 23.390625 C-8 25 -8 25 -9 25 C-8.95875 24.113125 -8.9175 23.22625 -8.875 22.3125 C-9.00001387 18.99963247 -9.70133117 17.00125435 -11 14 C-10.45730469 13.40832031 -9.91460937 12.81664063 -9.35546875 12.20703125 C-8.64003906 11.41683594 -7.92460938 10.62664062 -7.1875 9.8125 C-6.47980469 9.03519531 -5.77210937 8.25789063 -5.04296875 7.45703125 C-2.92303961 5.04408914 -2.92303961 5.04408914 -1.36328125 2.19921875 C-0.68845703 1.11060547 -0.68845703 1.11060547 0 0 Z " fill="#DDDDDD" transform="translate(108,96)"/>
<path d="M0 0 C6.04433574 1.35997554 9.63494136 4.85651794 14 9 C9 16.5 9 16.5 6 18 C4.9171875 16.824375 4.9171875 16.824375 3.8125 15.625 C1.16700959 13.15587562 -0.60373611 12.06739722 -4 11 C-3.01 10.01 -2.02 9.02 -1 8 C-0.34 8.66 0.32 9.32 1 10 C1.99 9.67 2.98 9.34 4 9 C4 8.34 4 7.68 4 7 C3.01 6.319375 3.01 6.319375 2 5.625 C1.34 5.08875 0.68 4.5525 0 4 C0 2.68 0 1.36 0 0 Z " fill="#7F7F7F" transform="translate(90,18)"/>
<path d="M0 0 C4.04420651 1.77945087 7.46078487 4.39529673 11 7 C9.68 7.99 8.36 8.98 7 10 C6.34 9.67 5.68 9.34 5 9 C3.576875 9.495 3.576875 9.495 2.125 10 C-2.2195122 11.3902439 -2.2195122 11.3902439 -5 10 C-7.25 7.4375 -7.25 7.4375 -9 5 C-7.68 5 -6.36 5 -5 5 C-3.97980427 4.0206121 -2.97850195 3.02104551 -2 2 C-1.01 2 -0.02 2 1 2 C0.67 1.34 0.34 0.68 0 0 Z " fill="#B2B2B2" transform="translate(352,80)"/>
<path d="M0 0 C0.66 0 1.32 0 2 0 C2.33745354 2.39531756 2.6700829 4.79114268 3 7.1875 C3.09539062 7.86103516 3.19078125 8.53457031 3.2890625 9.22851562 C3.78940118 12.8917095 4 16.28235944 4 20 C0.7 20 -2.6 20 -6 20 C-7.60725635 16.78548731 -7.05748185 13.56387464 -7 10 C-5 12 -5 12 -3 14 C-2.34 13.67 -1.68 13.34 -1 13 C-0.53089668 11.01082811 -0.53089668 11.01082811 -0.375 8.6875 C-0.26285156 7.51767578 -0.26285156 7.51767578 -0.1484375 6.32421875 C-0.014041 4.21985253 0 2.10865351 0 0 Z " fill="#929292" transform="translate(275,121)"/>
<path d="M0 0 C0.66 0 1.32 0 2 0 C2.90413673 3.83724172 3.10576898 7.37502274 3.0625 11.3125 C3.05347656 12.38113281 3.04445313 13.44976562 3.03515625 14.55078125 C3.02355469 15.35902344 3.01195313 16.16726562 3 17 C2.34 16.67 1.68 16.34 1 16 C0.01 16.33 -0.98 16.66 -2 17 C-2 16.34 -2 15.68 -2 15 C-3.98 15.99 -3.98 15.99 -6 17 C-5.84023273 9.78142415 -4.85969358 5.45233913 0 0 Z " fill="#C2C2C2" transform="translate(115,106)"/>
<path d="M0 0 C0.66 0 1.32 0 2 0 C3.65611439 3.12821606 4.08001092 4.59994541 3.375 8.125 C1.91779398 11.17188531 0.939052 12.39688073 -2 14 C-2.99 14 -3.98 14 -5 14 C-5 13.34 -5 12.68 -5 12 C-5.66 11.67 -6.32 11.34 -7 11 C-6.58485103 6.1565954 -4.53791301 4.18412171 -1 1 C-0.67 0.67 -0.34 0.34 0 0 Z " fill="#F4F4F4" transform="translate(96,111)"/>
<path d="M0 0 C2.5 0.1875 2.5 0.1875 5 1 C7.31406112 4.47109168 7.08619615 5.94878113 7 10 C7.33 10.66 7.66 11.32 8 12 C4.75 12.3125 4.75 12.3125 1 12 C-1.5 9.8125 -1.5 9.8125 -3 7 C-2.84077523 3.57666749 -2.4368763 2.4368763 0 0 Z " fill="#7C7C7C" transform="translate(52,15)"/>
<path d="M0 0 C1.25541557 3.76624671 0.37061958 5.37188934 -1 9 C-0.01 9.66 0.98 10.32 2 11 C0.54744301 14.82946843 -1.42895561 16.12050295 -5 18 C-6.0625 16.125 -6.0625 16.125 -7 14 C-6.67 13.34 -6.34 12.68 -6 12 C-7.32 11.34 -8.64 10.68 -10 10 C-6.66666667 6.66666667 -3.33333333 3.33333333 0 0 Z " fill="#CBCBCB" transform="translate(94,62)"/>
<path d="M0 0 C0.70125 0.2475 1.4025 0.495 2.125 0.75 C2.455 3.06 2.785 5.37 3.125 7.75 C1.3125 9.3125 1.3125 9.3125 -0.875 10.75 C-1.865 10.42 -2.855 10.09 -3.875 9.75 C-5.0625 7.1875 -5.0625 7.1875 -5.875 4.75 C-7.855 5.74 -7.855 5.74 -9.875 6.75 C-8.33310183 2.12430549 -4.9521101 -0.43061827 0 0 Z " fill="#DBDBDB" transform="translate(85.875,73.25)"/>
<path d="M0 0 C0.33 0.99 0.66 1.98 1 3 C2.98 2.67 4.96 2.34 7 2 C7.33 2.99 7.66 3.98 8 5 C3.60957142 8.42453429 0.7097955 10.58221009 -5 11 C-5.875 8.3125 -5.875 8.3125 -6 5 C-4.20703368 2.86499088 -2.32163572 1.61093091 0 0 Z " fill="#BDBDBD" transform="translate(32,57)"/>
<path d="M0 0 C0.5775 0.226875 1.155 0.45375 1.75 0.6875 C0.13731308 3.39974618 -1.49901874 6.06102812 -3.25 8.6875 C-3.58 7.6975 -3.91 6.7075 -4.25 5.6875 C-8.55356619 9.99106619 -8.63835873 16.87690795 -9.25 22.6875 C-9.91 22.6875 -10.57 22.6875 -11.25 22.6875 C-10.98214747 13.78140338 -10.78319367 7.22069367 -4.25 0.6875 C-2.25 -0.3125 -2.25 -0.3125 0 0 Z " fill="#B1B1B1" transform="translate(197.25,41.3125)"/>
<path d="M0 0 C4.62 0 9.24 0 14 0 C15 5 15 5 14 7 C14.66 7.33 15.32 7.66 16 8 C11.38 8 6.76 8 2 8 C2 7.67 2 7.34 2 7 C3.65 6.67 5.3 6.34 7 6 C6.67 4.35 6.34 2.7 6 1 C4.02 1 2.04 1 0 1 C0 0.67 0 0.34 0 0 Z " fill="#B4B4B4" transform="translate(66,45)"/>
<path d="M0 0 C3.63 0 7.26 0 11 0 C11 0.99 11 1.98 11 3 C12.32 3.66 13.64 4.32 15 5 C15 5.33 15 5.66 15 6 C13.20909747 6.19466332 11.41723495 6.38051213 9.625 6.5625 C8.12839844 6.71912109 8.12839844 6.71912109 6.6015625 6.87890625 C4 7 4 7 2 6 C2 4.68 2 3.36 2 2 C1.34 1.34 0.68 0.68 0 0 Z " fill="#DDDDDD" transform="translate(61,46)"/>
<path d="M0 0 C0.66 1.32 1.32 2.64 2 4 C3.32 3.34 4.64 2.68 6 2 C6 3.32 6 4.64 6 6 C4 8 4 8 0.7421875 8.1953125 C-0.53398438 8.17210937 -1.81015625 8.14890625 -3.125 8.125 C-5.04699219 8.09792969 -5.04699219 8.09792969 -7.0078125 8.0703125 C-8.48894531 8.03550781 -8.48894531 8.03550781 -10 8 C-6.66666667 5.33333333 -3.33333333 2.66666667 0 0 Z " fill="#F3F3F3" transform="translate(106,127)"/>
<path d="M0 0 C0.66 0 1.32 0 2 0 C2 7.26 2 14.52 2 22 C5.3 22 8.6 22 12 22 C8.77208445 24.1519437 7.71599191 24.20086443 4 24 C4 24.66 4 25.32 4 26 C3.01 26.33 2.02 26.66 1 27 C0.20293232 23.50007304 -0.11863027 20.2857769 -0.09765625 16.69921875 C-0.09443359 15.72275391 -0.09121094 14.74628906 -0.08789062 13.74023438 C-0.07951172 12.73283203 -0.07113281 11.72542969 -0.0625 10.6875 C-0.05798828 9.66076172 -0.05347656 8.63402344 -0.04882812 7.57617188 C-0.03708184 5.05072118 -0.02065565 2.52539095 0 0 Z " fill="#939393" transform="translate(296,109)"/>
<path d="M0 0 C0.66 0.66 1.32 1.32 2 2 C1.67 2.66 1.34 3.32 1 4 C1.66 4 2.32 4 3 4 C3 3.34 3 2.68 3 2 C3.66 2 4.32 2 5 2 C5.66 3.65 6.32 5.3 7 7 C1.375 12 1.375 12 -2 12 C-1.34 8.04 -0.68 4.08 0 0 Z " fill="#BFBFBF" transform="translate(235,123)"/>
<path d="M0 0 C0.99 0.33 1.98 0.66 3 1 C2.67 1.99 2.34 2.98 2 4 C2 4.66 2 5.32 2 6 C0.70766393 7.37310707 -0.62437146 8.71034824 -2 10 C-0.68 9.34 0.64 8.68 2 8 C2 9.32 2 10.64 2 12 C-0.64 12.33 -3.28 12.66 -6 13 C-6.66 12.01 -7.32 11.02 -8 10 C-7.236875 9.649375 -6.47375 9.29875 -5.6875 8.9375 C-2.09141882 6.34497636 -1.47896213 4.12552594 0 0 Z " fill="#888888" transform="translate(316,122)"/>
<path d="M0 0 C0.33 0 0.66 0 1 0 C1 2.97 1 5.94 1 9 C2.98 9 4.96 9 7 9 C7 9.66 7 10.32 7 11 C8.32 11.33 9.64 11.66 11 12 C9.35 13.32 7.7 14.64 6 16 C3.5625 15.1875 3.5625 15.1875 1 14 C-0.04976964 10.85069107 -0.10131595 8.61185544 -0.0625 5.3125 C-0.05347656 4.31863281 -0.04445313 3.32476562 -0.03515625 2.30078125 C-0.02355469 1.54152344 -0.01195312 0.78226562 0 0 Z M5 11 C4.67 11.66 4.34 12.32 4 13 C4.99 12.67 5.98 12.34 7 12 C6.34 11.67 5.68 11.34 5 11 Z " fill="#C7C7C7" transform="translate(337,64)"/>
<path d="M0 0 C3.16115776 1.36983503 3.9927092 1.9890638 6 5 C5.67 5.66 5.34 6.32 5 7 C4.01 7 3.02 7 2 7 C2 7.66 2 8.32 2 9 C1.34 9 0.68 9 0 9 C0 9.66 0 10.32 0 11 C-3.16115776 9.63016497 -3.9927092 9.0109362 -6 6 C-5.21625 5.896875 -4.4325 5.79375 -3.625 5.6875 C-0.66954819 5.22404978 -0.66954819 5.22404978 1 2 C0.67 1.34 0.34 0.68 0 0 Z " fill="#9D9D9D" transform="translate(362,88)"/>
<path d="M0 0 C0.58539551 0.73126099 0.58539551 0.73126099 1.18261719 1.47729492 C3.58424374 3.48951212 4.97289457 3.37352862 8.078125 3.36328125 C9.57279297 3.36231445 9.57279297 3.36231445 11.09765625 3.36132812 C12.13792969 3.34521484 13.17820312 3.32910156 14.25 3.3125 C15.27480469 3.31572266 16.29960937 3.31894531 17.35546875 3.32226562 C22.95002276 3.28266453 27.7185408 2.87238172 33 1 C30.94766315 3.2477975 29.99332739 4.0022242 27 5 C24.93501108 5.08315752 22.8674211 5.10735878 20.80078125 5.09765625 C19.59228516 5.09443359 18.38378906 5.09121094 17.13867188 5.08789062 C15.2447168 5.07532227 15.2447168 5.07532227 13.3125 5.0625 C11.40114258 5.05573242 11.40114258 5.05573242 9.45117188 5.04882812 C6.30073436 5.03702873 3.15039051 5.02056597 0 5 C0 3.35 0 1.7 0 0 Z " fill="#727272" transform="translate(287,136)"/>
<path d="M0 0 C4.04420651 1.77945087 7.46078487 4.39529673 11 7 C9.68 7.99 8.36 8.98 7 10 C6.34 9.67 5.68 9.34 5 9 C4.01 9.33 3.02 9.66 2 10 C2.04125 8.906875 2.0825 7.81375 2.125 6.6875 C2.32074666 2.91107771 2.32074666 2.91107771 0 0 Z " fill="#ACACAC" transform="translate(352,80)"/>
<path d="M0 0 C0.66 0 1.32 0 2 0 C2.82622671 5.60563042 3.06795656 10.42289352 2 16 C0.02 16 -1.96 16 -4 16 C-3.67 15.01 -3.34 14.02 -3 13 C-2.34 13 -1.68 13 -1 13 C-0.83052421 11.58366664 -0.66454493 10.16691467 -0.5 8.75 C-0.4071875 7.96109375 -0.314375 7.1721875 -0.21875 6.359375 C0.06154619 3.73109603 0.06154619 3.73109603 0 0 Z " fill="#9E9E9E" transform="translate(275,121)"/>
<path d="M0 0 C0.66 0.33 1.32 0.66 2 1 C-4.59811655 5.06037942 -10.27590141 5.98410738 -18 5 C-18.99 4.34 -19.98 3.68 -21 3 C-19 2 -19 2 -17.3125 2.4375 C-12.42002152 3.62756233 -8.31772269 3.27782444 -3.6875 1.4375 C-1.8621875 0.7259375 -1.8621875 0.7259375 0 0 Z " fill="#B3B3B3" transform="translate(218,138)"/>
<path d="M0 0 C0.495 0.165 0.99 0.33 1.5 0.5 C1.17 1.16 0.84 1.82 0.5 2.5 C-0.49 2.17 -1.48 1.84 -2.5 1.5 C-2.17 3.15 -1.84 4.8 -1.5 6.5 C-2.49 6.17 -3.48 5.84 -4.5 5.5 C-4.17 4.18 -3.84 2.86 -3.5 1.5 C-7.13 1.5 -10.76 1.5 -14.5 1.5 C-9.45860751 -1.02069624 -5.47921118 -1.09584224 0 0 Z " fill="#B1B1B1" transform="translate(212.5,39.5)"/>
<path d="M0 0 C2.4375 0.375 2.4375 0.375 5 1 C5.33 1.66 5.66 2.32 6 3 C4.5625 5.625 4.5625 5.625 3 8 C1.35 6.35 -0.3 4.7 -2 3 C-1.34 2.01 -0.68 1.02 0 0 Z " fill="#C3C3C3" transform="translate(59,106)"/>
<path d="M0 0 C2.3828125 0.2421875 2.3828125 0.2421875 5.125 0.875 C6.03507812 1.07867187 6.94515625 1.28234375 7.8828125 1.4921875 C8.58148438 1.65976563 9.28015625 1.82734375 10 2 C10.33 2.99 10.66 3.98 11 5 C6.428721 4.45144652 2.32564205 3.58255197 -2 2 C-1.34 1.34 -0.68 0.68 0 0 Z " fill="#040404" transform="translate(79,12)"/>
<path d="M0 0 C0.33 0.66 0.66 1.32 1 2 C1.66 2.144375 2.32 2.28875 3 2.4375 C3.66 2.623125 4.32 2.80875 5 3 C5.33 3.99 5.66 4.98 6 6 C6.66 6.33 7.32 6.66 8 7 C7.67 7.99 7.34 8.98 7 10 C1.21538462 5.69230769 1.21538462 5.69230769 0.125 2.1875 C0.08375 1.465625 0.0425 0.74375 0 0 Z " fill="#A8A8A8" transform="translate(53,118)"/>
<path d="M0 0 C1.32 0.66 2.64 1.32 4 2 C3.34 2 2.68 2 2 2 C1.82984375 2.63808594 1.6596875 3.27617188 1.484375 3.93359375 C1.24203125 4.75988281 0.9996875 5.58617187 0.75 6.4375 C0.40195313 7.67306641 0.40195313 7.67306641 0.046875 8.93359375 C-1 11 -1 11 -3.109375 11.78515625 C-3.73328125 11.85605469 -4.3571875 11.92695312 -5 12 C-3.41037341 7.96479403 -1.71767682 3.98188718 0 0 Z " fill="#151515" transform="translate(106,57)"/>
<path d="M0 0 C0.99 0.33 1.98 0.66 3 1 C2.34 4.96 1.68 8.92 1 13 C0.34 13 -0.32 13 -1 13 C-0.67 8.71 -0.34 4.42 0 0 Z " fill="#B7B7B7" transform="translate(187,51)"/>
<path d="M0 0 C3.3 0 6.6 0 10 0 C10 0.66 10 1.32 10 2 C6.7 2.33 3.4 2.66 0 3 C0 2.01 0 1.02 0 0 Z " fill="#020202" transform="translate(67,26)"/>
<path d="M0 0 C0.75 1.6875 0.75 1.6875 1 4 C-1.42050749 7.91005056 -3.61750634 9.66090471 -8 11 C-7.59007813 10.45730469 -7.18015625 9.91460937 -6.7578125 9.35546875 C-6.21898438 8.64003906 -5.68015625 7.92460938 -5.125 7.1875 C-4.59132813 6.47980469 -4.05765625 5.77210937 -3.5078125 5.04296875 C-2.29185219 3.39543703 -1.13583859 1.70375789 0 0 Z " fill="#171717" transform="translate(114,104)"/>
<path d="M0 0 C0.33 0 0.66 0 1 0 C0.50769231 7.38461538 0.50769231 7.38461538 -2.0625 10.5 C-2.701875 10.995 -3.34125 11.49 -4 12 C-4.6875 10.1875 -4.6875 10.1875 -5 8 C-3.6875 6.5625 -3.6875 6.5625 -2 5 C-0.80972016 2.40084462 -0.80972016 2.40084462 0 0 Z " fill="#BCBCBC" transform="translate(224,126)"/>
<path d="M0 0 C0.66 0.33 1.32 0.66 2 1 C2 1.99 2 2.98 2 4 C-0.31 4.66 -2.62 5.32 -5 6 C-4.75 4.125 -4.75 4.125 -4 2 C-2.0625 0.6875 -2.0625 0.6875 0 0 Z " fill="#0C0C0C" transform="translate(75,89)"/>
<path d="M0 0 C0.66 0 1.32 0 2 0 C1.6875 2.375 1.6875 2.375 1 5 C0.01 5.66 -0.98 6.32 -2 7 C-2.99 8.485 -2.99 8.485 -4 10 C-4.66 9.34 -5.32 8.68 -6 8 C-5.38125 7.236875 -4.7625 6.47375 -4.125 5.6875 C-1.94402948 3.00374191 -1.94402948 3.00374191 0 0 Z " fill="#BDBDBD" transform="translate(108,96)"/>
<path d="M0 0 C2.625 0.9375 2.625 0.9375 5 2 C4.34 2.66 3.68 3.32 3 4 C2.01 4 1.02 4 0 4 C-0.33 4.66 -0.66 5.32 -1 6 C-1.66 5.67 -2.32 5.34 -3 5 C-2.625 3.0625 -2.625 3.0625 -2 1 C-1.34 0.67 -0.68 0.34 0 0 Z " fill="#CECECE" transform="translate(36,55)"/>
<path d="M0 0 C1.32 0.33 2.64 0.66 4 1 C3.21625 1.7425 2.4325 2.485 1.625 3.25 C-0.56504531 5.54433318 -1.82731386 7.12158858 -3 10 C-3.75 8.375 -3.75 8.375 -4 6 C-2.0625 2.75 -2.0625 2.75 0 0 Z " fill="#ABABAB" transform="translate(57,105)"/>
<path d="M0 0 C3.63 0.33 7.26 0.66 11 1 C11 1.66 11 2.32 11 3 C7.7 3 4.4 3 1 3 C0.67 2.01 0.34 1.02 0 0 Z " fill="#BCBCBC" transform="translate(365,68)"/>
<path d="M0 0 C1.25541557 3.76624671 0.37061958 5.37188934 -1 9 C-1.99 9 -2.98 9 -4 9 C-4.8125 7.3125 -4.8125 7.3125 -5 5 C-2.5625 2.25 -2.5625 2.25 0 0 Z " fill="#B2B2B2" transform="translate(94,62)"/>
<path d="M0 0 C2.625 0.375 2.625 0.375 5 1 C4.34 2.32 3.68 3.64 3 5 C1.35 4.01 -0.3 3.02 -2 2 C-1.34 1.34 -0.68 0.68 0 0 Z " fill="#BDBDBD" transform="translate(91,72)"/>
<path d="M0 0 C0.99 0.33 1.98 0.66 3 1 C3 1.99 3 2.98 3 4 C2.34 4 1.68 4 1 4 C1 7.3 1 10.6 1 14 C0.67 14 0.34 14 0 14 C0 9.38 0 4.76 0 0 Z " fill="#202020" transform="translate(108,34)"/>
<path d="M0 0 C0.66 0.33 1.32 0.66 2 1 C2 1.66 2 2.32 2 3 C1.01 3.33 0.02 3.66 -1 4 C-1.33 4.66 -1.66 5.32 -2 6 C-2.99 5.67 -3.98 5.34 -5 5 C-4 2 -4 2 -2.0625 0.75 C-1.381875 0.5025 -0.70125 0.255 0 0 Z " fill="#EBEBEB" transform="translate(70,81)"/>
<path d="M0 0 C0.66 0.66 1.32 1.32 2 2 C1.625 4.625 1.625 4.625 1 7 C0.01 7 -0.98 7 -2 7 C-1.125 1.125 -1.125 1.125 0 0 Z " fill="#9A9A9A" transform="translate(102,59)"/>
<path d="M0 0 C0.66 0.33 1.32 0.66 2 1 C1.45276317 4.37462715 0.9451 6.08235 -1 9 C-1.99 8.67 -2.98 8.34 -4 8 C-3.34 8 -2.68 8 -2 8 C-2.33 7.01 -2.66 6.02 -3 5 C-2.34 5 -1.68 5 -1 5 C-0.67 3.35 -0.34 1.7 0 0 Z " fill="#B1B1B1" transform="translate(114,98)"/>
<path d="M0 0 C4 4.5 4 4.5 4 9 C0.06153846 5.67692308 0.06153846 5.67692308 -0.25 2.25 C-0.1675 1.5075 -0.085 0.765 0 0 Z " fill="#1E1E1E" transform="translate(23,79)"/>
<path d="M0 0 C1.98 0.66 3.96 1.32 6 2 C4.68 3.32 3.36 4.64 2 6 C0 2.25 0 2.25 0 0 Z " fill="#797979" transform="translate(90,18)"/>
<path d="M0 0 C0.33 0.99 0.66 1.98 1 3 C-0.3125 5.1875 -0.3125 5.1875 -2 7 C-2.66 7 -3.32 7 -4 7 C-3.43628586 3.73045798 -2.50037734 2.17424117 0 0 Z " fill="#171717" transform="translate(16,70)"/>
<path d="M0 0 C0.99 0.33 1.98 0.66 3 1 C4.1875 4.0625 4.1875 4.0625 5 7 C4.01 7 3.02 7 2 7 C1.34 4.69 0.68 2.38 0 0 Z " fill="#7D7D7D" transform="translate(113,65)"/>
<path d="M0 0 C0.99 0.33 1.98 0.66 3 1 C1.515 3.475 1.515 3.475 0 6 C-1.32 5.34 -2.64 4.68 -4 4 C-2.68 2.68 -1.36 1.36 0 0 Z " fill="#212121" transform="translate(105,96)"/>
<path d="M0 0 C2.55028983 1.27514492 2.93081711 2.40341297 4 5 C4 5.99 4 6.98 4 8 C3.01 7.67 2.02 7.34 1 7 C0.67 4.69 0.34 2.38 0 0 Z " fill="#E5E5E5" transform="translate(81,76)"/>
</svg>
