<?xml version="1.0" encoding="UTF-8"?>
<svg version="1.1" xmlns="http://www.w3.org/2000/svg" width="200" height="200">
<path d="M0 0 C66 0 132 0 200 0 C200 66 200 132 200 200 C134 200 68 200 0 200 C0 134 0 68 0 0 Z " fill="#FDFDFD" transform="translate(0,0)"/>
<path d="M0 0 C6.57774866 0.02993825 12.38556708 0.7362224 18 4.375 C21.23796711 8.07553384 22 9.4344584 22 14.375 C24.97 14.375 27.94 14.375 31 14.375 C31 30.875 31 47.375 31 64.375 C14.83 64.375 -1.34 64.375 -18 64.375 C-18 57.775 -18 51.175 -18 44.375 C-16.246875 44.1275 -14.49375 43.88 -12.6875 43.625 C-3.47580166 42.0625918 4.222399 39.61024076 11.44140625 33.546875 C13 32.375 13 32.375 15 32.375 C15.68774405 31.05241528 16.34711373 29.71513497 17 28.375 C17.53625 27.34375 18.0725 26.3125 18.625 25.25 C20.93309187 19.8136821 20.61140743 14.04295971 19.3125 8.375 C16.71257805 4.41321417 12.37070649 4.19308399 8 3.25 C4.60277884 2.55993945 1.46709278 2.28832268 -2 2.375 C-2.33 3.695 -2.66 5.015 -3 6.375 C-1.80503906 6.41367188 -1.80503906 6.41367188 -0.5859375 6.453125 C6.42434574 6.8283713 10.92372095 7.29872095 16 12.375 C16.55168286 17.1773541 16.53998673 21.20502875 14.5 25.625 C8.27629329 32.47107739 0.18264086 37.60108074 -9 39.375 C-10.74886981 39.44124507 -12.50002748 39.46052595 -14.25 39.4375 C-15.14203125 39.42847656 -16.0340625 39.41945312 -16.953125 39.41015625 C-17.62859375 39.39855469 -18.3040625 39.38695312 -19 39.375 C-19.33 38.715 -19.66 38.055 -20 37.375 C-19.34 37.375 -18.68 37.375 -18 37.375 C-18 35.725 -18 34.075 -18 32.375 C-18.66 32.375 -19.32 32.375 -20 32.375 C-18.56188795 28.82970774 -16.8685536 27.26721403 -13.6875 25.1875 C-12.92824219 24.67832031 -12.16898438 24.16914062 -11.38671875 23.64453125 C-6.0828152 20.82330596 -0.54275122 21.25242244 5.3125 21.3125 C6.14845703 21.31701172 6.98441406 21.32152344 7.84570312 21.32617188 C9.89716649 21.33789452 11.94859273 21.35582797 14 21.375 C14 20.715 14 20.055 14 19.375 C7.98607381 16.3680369 -2.72473324 17.47846989 -9.015625 19.4921875 C-12.07344556 20.6843334 -15.0499049 21.93843195 -18 23.375 C-18 20.405 -18 17.435 -18 14.375 C-7.44 14.045 3.12 13.715 14 13.375 C7.84466817 8.75850113 3.59655312 9.34309718 -3.84765625 9.53515625 C-7 9.375 -7 9.375 -9 7.375 C-9.25 4.875 -9.25 4.875 -9 2.375 C-6.12321815 -0.50178185 -4.01445059 0.04046825 0 0 Z " fill="#060606" transform="translate(33,66.625)"/>
<path d="M0 0 C4.95 0 9.9 0 15 0 C19.50114567 4.50114567 19.50114567 4.50114567 19.51757812 8.04663086 C19.53018677 8.83102036 19.54279541 9.61540985 19.55578613 10.42356873 C19.54768921 11.26218948 19.53959229 12.10081024 19.53125 12.96484375 C19.5350769 13.83516739 19.53890381 14.70549103 19.54284668 15.60218811 C19.54556517 17.44045164 19.53820835 19.27875389 19.52148438 21.11694336 C19.50009866 23.92454752 19.52127373 26.72958538 19.546875 29.53710938 C19.54423121 31.32552646 19.53910516 33.11394196 19.53125 34.90234375 C19.53934692 35.73894028 19.54744385 36.5755368 19.55578613 37.43748474 C19.54317749 38.2250264 19.53056885 39.01256805 19.51757812 39.82397461 C19.51280457 40.85511635 19.51280457 40.85511635 19.50793457 41.90708923 C19 44 19 44 15 49 C10.05 49 5.1 49 0 49 C0 32.83 0 16.66 0 0 Z " fill="#0A0A0A" transform="translate(144,82)"/>
<path d="M0 0 C3.08384449 1.41845361 5.20279293 2.86170772 7.53515625 5.33984375 C9.55642983 11.1510053 9.4595009 16.92143327 6.84765625 22.52734375 C1.31434681 32.11457087 -8.13055997 37.08396346 -18.27734375 40.55078125 C-21.46484375 41.21484375 -21.46484375 41.21484375 -30.46484375 41.21484375 C-30.46484375 47.81484375 -30.46484375 54.41484375 -30.46484375 61.21484375 C-30.79484375 61.21484375 -31.12484375 61.21484375 -31.46484375 61.21484375 C-31.46484375 54.61484375 -31.46484375 48.01484375 -31.46484375 41.21484375 C-32.78484375 40.88484375 -34.10484375 40.55484375 -35.46484375 40.21484375 C-38.31583666 37.52223933 -39.35268869 35.75522721 -40.15234375 31.90234375 C-39.28674765 27.25960105 -37.2989058 25.5873603 -34.08984375 22.28125 C-31.51698732 19.0095167 -31.53781478 16.3012213 -31.46484375 12.21484375 C-31.13484375 12.21484375 -30.80484375 12.21484375 -30.46484375 12.21484375 C-30.13484375 14.52484375 -29.80484375 16.83484375 -29.46484375 19.21484375 C-28.79582031 18.85390625 -28.12679688 18.49296875 -27.4375 18.12109375 C-20.97493453 14.99824332 -15.50002858 13.74094148 -8.40234375 13.77734375 C-7.66443604 13.77992187 -6.92652832 13.7825 -6.16625977 13.78515625 C-2.43789656 13.88861413 -0.63240777 14.10313441 2.53515625 16.21484375 C2.04015625 17.69984375 2.04015625 17.69984375 1.53515625 19.21484375 C0.34019531 19.18003906 -0.85476562 19.14523438 -2.0859375 19.109375 C-16.40310785 18.63845641 -16.40310785 18.63845641 -28.96484375 24.77734375 C-31.4714313 26.95451042 -31.4714313 26.95451042 -32.46484375 29.21484375 C-31.80484375 29.21484375 -31.14484375 29.21484375 -30.46484375 29.21484375 C-30.42212275 30.8809628 -30.42420543 32.5486726 -30.46484375 34.21484375 C-30.95984375 34.70984375 -30.95984375 34.70984375 -31.46484375 35.21484375 C-20.05975753 36.10547955 -10.27304484 32.48800565 -1.46484375 25.21484375 C1.8704767 21.63547546 2.83078346 18.86925324 3.16015625 14.08984375 C2.96831523 10.44486442 2.7906718 9.51416197 0.34765625 6.65234375 C-4.68422943 4.05720658 -10.93156455 4.37903601 -16.46484375 4.21484375 C-16.46484375 2.56484375 -16.46484375 0.91484375 -16.46484375 -0.78515625 C-11.80744 -3.11385812 -4.79799548 -1.52836306 0 0 Z " fill="#616161" transform="translate(45.46484375,69.78515625)"/>
<path d="M0 0 C2.64 0 5.28 0 8 0 C8.84830393 4.54700197 9.68374774 9.09613618 10.50854492 13.64746094 C10.78940289 15.18778385 11.07346083 16.72752755 11.36108398 18.26660156 C13.33639187 28.85231458 14.58300743 39.23700947 15 50 C13.68 50 12.36 50 11 50 C9.48940272 45.9402698 9 43.45389333 9 39 C5.7 39 2.4 39 -1 39 C-1.33 42.96 -1.66 46.92 -2 51 C-3.98 51 -5.96 51 -8 51 C-7.71472703 48.1867229 -7.42193837 45.3745507 -7.125 42.5625 C-7.04636719 41.77939453 -6.96773438 40.99628906 -6.88671875 40.18945312 C-6.38256907 35.47759262 -5.58541879 30.96139877 -4.50390625 26.3503418 C-3.56724844 21.98154107 -3.02831872 17.5514514 -2.4375 13.125 C-2.1887927 11.27308718 -1.93760088 9.42150585 -1.68359375 7.5703125 C-1.57587646 6.76352051 -1.46815918 5.95672852 -1.35717773 5.12548828 C-1 3 -1 3 0 0 Z " fill="#131313" transform="translate(124,81)"/>
<path d="M0 0 C6.8479663 0.27518875 6.8479663 0.27518875 10.02734375 2.6015625 C12.19116515 5.800255 12.58203595 7.52310878 12.52734375 11.3515625 C12.51832031 12.16882813 12.50929688 12.98609375 12.5 13.828125 C12.48839844 14.45460938 12.47679688 15.08109375 12.46484375 15.7265625 C10.81484375 15.7265625 9.16484375 15.7265625 7.46484375 15.7265625 C7.23697917 13.67578125 7.00911458 11.625 6.78125 9.57421875 C6.64597761 7.71516021 6.64597761 7.71516021 5.46484375 6.7265625 C3.48484375 6.7265625 1.50484375 6.7265625 -0.53515625 6.7265625 C-0.53515625 19.5965625 -0.53515625 32.4665625 -0.53515625 45.7265625 C1.44484375 45.7265625 3.42484375 45.7265625 5.46484375 45.7265625 C7.52406777 43.66733848 6.87911954 39.50948126 7.02734375 36.6640625 C7.07052734 35.90544922 7.11371094 35.14683594 7.15820312 34.36523438 C7.26458008 32.48590812 7.36524309 30.60626006 7.46484375 28.7265625 C6.14484375 28.7265625 4.82484375 28.7265625 3.46484375 28.7265625 C3.46484375 27.0765625 3.46484375 25.4265625 3.46484375 23.7265625 C6.43484375 23.7265625 9.40484375 23.7265625 12.46484375 23.7265625 C12.55225499 27.28890678 12.60537271 30.85097358 12.65234375 34.4140625 C12.67748047 35.42146484 12.70261719 36.42886719 12.72851562 37.46679688 C12.82157619 46.86591381 12.82157619 46.86591381 9.46484375 50.7265625 C7.06940554 51.9242816 5.32514421 52.031825 2.65234375 52.1640625 C1.37423828 52.25494141 1.37423828 52.25494141 0.0703125 52.34765625 C-3.1144586 51.58846794 -4.46263348 50.11845514 -6.46922302 47.5907135 C-8.42952377 44.16245316 -8.24790895 40.68471584 -8.19921875 36.8203125 C-8.20400238 35.97738647 -8.20878601 35.13446045 -8.2137146 34.26599121 C-8.21710397 32.49094772 -8.20796903 30.71584098 -8.18701172 28.94091797 C-8.16022911 26.23392707 -8.18678886 23.53108169 -8.21875 20.82421875 C-8.21544573 19.09374091 -8.20903912 17.36326563 -8.19921875 15.6328125 C-8.2093399 14.82952515 -8.21946106 14.02623779 -8.22988892 13.1986084 C-8.14492981 9.09646799 -7.75020619 6.47773391 -5.15209961 3.21533203 C-2.53515625 0.7265625 -2.53515625 0.7265625 0 0 Z " fill="#1A1A1A" transform="translate(100.53515625,80.2734375)"/>
<path d="M0 0 C1.58206057 0.00667536 3.16410534 0.0186375 4.74609375 0.03515625 C5.55240234 0.03966797 6.35871094 0.04417969 7.18945312 0.04882812 C9.18753131 0.06065107 11.18557158 0.07858711 13.18359375 0.09765625 C13.18359375 2.07765625 13.18359375 4.05765625 13.18359375 6.09765625 C9.22359375 6.09765625 5.26359375 6.09765625 1.18359375 6.09765625 C1.18359375 11.70765625 1.18359375 17.31765625 1.18359375 23.09765625 C4.48359375 23.09765625 7.78359375 23.09765625 11.18359375 23.09765625 C11.18359375 24.74765625 11.18359375 26.39765625 11.18359375 28.09765625 C7.88359375 28.09765625 4.58359375 28.09765625 1.18359375 28.09765625 C1.18359375 33.70765625 1.18359375 39.31765625 1.18359375 45.09765625 C5.14359375 45.09765625 9.10359375 45.09765625 13.18359375 45.09765625 C13.18359375 47.07765625 13.18359375 49.05765625 13.18359375 51.09765625 C10.37103094 51.12449937 7.55872134 51.14441813 4.74609375 51.16015625 C3.94365234 51.16853516 3.14121094 51.17691406 2.31445312 51.18554688 C0.27064154 51.19417055 -1.77324527 51.14993775 -3.81640625 51.09765625 C-5.43049875 49.48356375 -4.94374943 47.73289217 -4.94580078 45.50195312 C-4.94895294 44.5242395 -4.9521051 43.54652588 -4.95535278 42.53918457 C-4.95332855 41.47566772 -4.95130432 40.41215088 -4.94921875 39.31640625 C-4.95017548 38.23258667 -4.9511322 37.14876709 -4.95211792 36.03210449 C-4.9527999 33.73543235 -4.95094436 31.4387583 -4.94677734 29.14208984 C-4.94142937 25.61291197 -4.94672175 22.08386138 -4.953125 18.5546875 C-4.95246422 16.3294268 -4.95118307 14.10416618 -4.94921875 11.87890625 C-4.95124298 10.8153894 -4.95326721 9.75187256 -4.95535278 8.65612793 C-4.95220062 7.67841431 -4.94904846 6.70070068 -4.94580078 5.69335938 C-4.94500519 4.82811646 -4.94420959 3.96287354 -4.94338989 3.07141113 C-4.71011821 -0.55441901 -3.80541706 0.09737505 0 0 Z " fill="#2A2A2A" transform="translate(75.81640625,80.90234375)"/>
<path d="M0 0 C3.125 1.875 3.125 1.875 5 5 C5.3867797 8.37787602 5.2955326 11.61779362 5 15 C3.35 15 1.7 15 0 15 C-0.22786458 12.94921875 -0.45572917 10.8984375 -0.68359375 8.84765625 C-0.81886614 6.98859771 -0.81886614 6.98859771 -2 6 C-3.99958364 5.95919217 -6.00045254 5.95745644 -8 6 C-8.76944331 13.3179189 -8.76944331 13.3179189 -5.9375 19.75 C-4.4834375 20.86375 -4.4834375 20.86375 -3 22 C-1.73400697 23.21268806 -0.48452582 24.44279253 0.75 25.6875 C1.34296875 26.26886719 1.9359375 26.85023437 2.546875 27.44921875 C5.60886135 30.71698376 5.21787868 34.13498541 5.25 38.375 C5.270625 39.04789063 5.29125 39.72078125 5.3125 40.4140625 C5.33693343 43.51710828 5.18006989 45.6726965 3.671875 48.4140625 C0.40726191 51.51086837 -3.56319302 51.41163141 -7.8359375 51.328125 C-10 51 -10 51 -12.5625 49.125 C-14.58790099 44.72195437 -14.33334081 40.76862544 -14 36 C-12.35 36 -10.7 36 -9 36 C-8.67 38.97 -8.34 41.94 -8 45 C-6.00045254 45.04254356 -3.99958364 45.04080783 -2 45 C-0.28310511 43.28310511 -0.74696946 41.09121863 -0.6875 38.75 C-0.73768037 35.21000299 -0.78898267 33.3868651 -2.5 30.25 C-5.39715524 27.64256029 -8.30350021 25.05217329 -11.29296875 22.55078125 C-13.85282433 20.2252374 -13.98661677 19.18736523 -14.23828125 15.6640625 C-14.26887747 14.31782869 -14.29337435 12.97144562 -14.3125 11.625 C-14.34150391 10.95210937 -14.37050781 10.27921875 -14.40039062 9.5859375 C-14.4431807 6.24172824 -14.22694012 4.32383008 -12.2890625 1.55859375 C-8.35750289 -1.11835554 -4.56620178 -0.81881809 0 0 Z " fill="#111111" transform="translate(183,81)"/>
<path d="M0 0 C0.71542969 -0.00386719 1.43085937 -0.00773437 2.16796875 -0.01171875 C5.33634984 -0.00579654 7.84810145 0.11603382 10.875 1.125 C9.47551983 6.41192511 6.26213647 9.1613493 1.875 12.125 C-4.82023684 15.65229286 -10.75629981 18.28774606 -18.375 18.1875 C-19.26703125 18.17847656 -20.1590625 18.16945313 -21.078125 18.16015625 C-21.75359375 18.14855469 -22.4290625 18.13695313 -23.125 18.125 C-23.455 17.465 -23.785 16.805 -24.125 16.125 C-23.465 16.125 -22.805 16.125 -22.125 16.125 C-22.125 14.475 -22.125 12.825 -22.125 11.125 C-22.785 11.125 -23.445 11.125 -24.125 11.125 C-22.68688795 7.57970774 -20.9935536 6.01721403 -17.8125 3.9375 C-17.05324219 3.42832031 -16.29398438 2.91914062 -15.51171875 2.39453125 C-10.56367938 -0.23740459 -5.49097217 -0.03000531 0 0 Z " fill="#050505" transform="translate(37.125,87.875)"/>
<path d="M0 0 C6.14673913 5.98913043 6.14673913 5.98913043 6.3125 11.625 C6.22102589 19.56037865 2.55155957 25.44844043 -3 31 C-8.521799 35.22780166 -13.56716019 36.8364919 -20.53125 36.484375 C-23 36 -23 36 -26.25 33.875 C-28 31 -28 31 -28.3125 28.125 C-25.97721654 22.5648013 -21.39847913 19.17372383 -16.0625 16.5625 C-12.0690113 15.82900208 -8.02669602 15.28669956 -4 16 C-2.23046875 17.51953125 -2.23046875 17.51953125 -1 19 C-1.33 19.66 -1.66 20.32 -2 21 C-2.71285156 20.96519531 -3.42570312 20.93039063 -4.16015625 20.89453125 C-10.28069694 20.72154154 -14.64852104 20.92574613 -20 24 C-22.2773501 26.81509993 -22.2773501 26.81509993 -22 30 C-17.07017894 30.35073826 -13.19484365 30.58614972 -8.6875 28.375 C-5.2334168 25.32255438 -2.08525377 22.17050754 0 18 C0.33386041 12.54040034 -0.05834972 7.38085877 -1 2 C-0.67 1.34 -0.34 0.68 0 0 Z " fill="#D4D4D4" transform="translate(54,90)"/>
<path d="M0 0 C2.64 0 5.28 0 8 0 C10.0468734 2.0468734 9.18813103 6.3060472 9.203125 9.12109375 C9.20882507 9.93618912 9.21452515 10.75128448 9.22039795 11.59107971 C9.22986127 13.31860042 9.2363872 15.04613929 9.24023438 16.77368164 C9.24994687 19.42300726 9.28095964 22.07155958 9.3125 24.72070312 C9.31902903 26.39582871 9.32427989 28.07095986 9.328125 29.74609375 C9.3404718 30.54196396 9.3528186 31.33783417 9.36553955 32.15782166 C9.35644531 34.39233398 9.35644531 34.39233398 9 38 C6 40 6 40 0 40 C0 26.8 0 13.6 0 0 Z " fill="#FAFAFA" transform="translate(149,87)"/>
<path d="M0 0 C6.57774866 0.02993825 12.38556708 0.7362224 18 4.375 C21.23796711 8.07553384 22 9.4344584 22 14.375 C24.97 14.375 27.94 14.375 31 14.375 C31 14.705 31 15.035 31 15.375 C28.03 15.375 25.06 15.375 22 15.375 C21.67 16.695 21.34 18.015 21 19.375 C20.86722656 18.68792969 20.73445313 18.00085938 20.59765625 17.29296875 C20.42105469 16.39191406 20.24445312 15.49085937 20.0625 14.5625 C19.88847656 13.66917969 19.71445312 12.77585937 19.53515625 11.85546875 C19.02258847 9.26102829 19.02258847 9.26102829 18 6.375 C12.16456941 3.17492516 4.57379074 2.21065523 -2 2.375 C-2.33 3.695 -2.66 5.015 -3 6.375 C-1.80503906 6.41367188 -1.80503906 6.41367188 -0.5859375 6.453125 C6.42434574 6.8283713 10.92372095 7.29872095 16 12.375 C16.07205511 14.06108966 16.08386068 15.75000659 16.0625 17.4375 C16.05347656 18.35660156 16.04445312 19.27570313 16.03515625 20.22265625 C16.02355469 20.93292969 16.01195312 21.64320312 16 22.375 C15.34 22.045 14.68 21.715 14 21.375 C14 20.715 14 20.055 14 19.375 C7.98607381 16.3680369 -2.72473324 17.47846989 -9.015625 19.4921875 C-12.07344556 20.6843334 -15.0499049 21.93843195 -18 23.375 C-18 20.405 -18 17.435 -18 14.375 C-7.44 14.045 3.12 13.715 14 13.375 C7.84466817 8.75850113 3.59655312 9.34309718 -3.84765625 9.53515625 C-7 9.375 -7 9.375 -9 7.375 C-9.25 4.875 -9.25 4.875 -9 2.375 C-6.12321815 -0.50178185 -4.01445059 0.04046825 0 0 Z " fill="#3A3A3A" transform="translate(33,66.625)"/>
<path d="M0 0 C3.08384449 1.41845361 5.20279293 2.86170772 7.53515625 5.33984375 C9.50404853 11.00040906 9.39441684 16.81243322 7.03515625 22.33984375 C6.54015625 23.28859375 6.04515625 24.23734375 5.53515625 25.21484375 C4.87515625 24.88484375 4.21515625 24.55484375 3.53515625 24.21484375 C3.53515625 23.55484375 3.53515625 22.89484375 3.53515625 22.21484375 C2.87515625 21.88484375 2.21515625 21.55484375 1.53515625 21.21484375 C1.86515625 20.55484375 2.19515625 19.89484375 2.53515625 19.21484375 C3.00405718 15.80789266 3.07366177 12.61622046 2.53515625 9.21484375 C-1.13931497 4.91046318 -4.82354641 4.92804429 -10.33984375 4.46484375 C-12.38074004 4.36439695 -14.42237613 4.2754511 -16.46484375 4.21484375 C-16.46484375 2.56484375 -16.46484375 0.91484375 -16.46484375 -0.78515625 C-11.80744 -3.11385812 -4.79799548 -1.52836306 0 0 Z " fill="#7B7B7B" transform="translate(45.46484375,69.78515625)"/>
<path d="M0 0 C1.76953125 1.51953125 1.76953125 1.51953125 3 3 C2.67 3.66 2.34 4.32 2 5 C1.28714844 4.96519531 0.57429688 4.93039063 -0.16015625 4.89453125 C-6.28069694 4.72154154 -10.64852104 4.92574613 -16 8 C-18.2773501 10.81509993 -18.2773501 10.81509993 -18 14 C-15.69 14.33 -13.38 14.66 -11 15 C-11 16.32 -11 17.64 -11 19 C-10.01 19.33 -9.02 19.66 -8 20 C-17.81676933 20.77365082 -17.81676933 20.77365082 -22.25 17.875 C-24 15 -24 15 -24.3125 12.125 C-21.97721654 6.5648013 -17.39847913 3.17372383 -12.0625 0.5625 C-8.0690113 -0.17099792 -4.02669602 -0.71330044 0 0 Z " fill="#A2A2A2" transform="translate(50,106)"/>
<path d="M0 0 C-1.73451031 4.68317784 -5.59240757 7.79620379 -10 10 C-11.70702735 10.06996014 -13.41668003 10.08440154 -15.125 10.0625 C-16.03507812 10.05347656 -16.94515625 10.04445313 -17.8828125 10.03515625 C-18.58148438 10.02355469 -19.28015625 10.01195313 -20 10 C-20.59765625 8.1640625 -20.59765625 8.1640625 -21 6 C-19.12931316 2.8572461 -17.60626717 1.29608397 -14.3125 -0.3125 C-9.74839969 -1.2597661 -4.29823773 -2.14911887 0 0 Z " fill="#080808" transform="translate(52,111)"/>
<path d="M0 0 C0.8125 1.6875 0.8125 1.6875 1 4 C-4.54715731 11.02639926 -13.2421916 16.24843832 -22 18 C-25.05239869 18.2090684 -27.93459539 18.14597165 -31 18 C-31 17.01 -31 16.02 -31 15 C-30.03320312 14.70867187 -29.06640625 14.41734375 -28.0703125 14.1171875 C-19.26838762 11.37954081 -10.47682441 8.55836948 -3.85546875 1.81640625 C-2 0 -2 0 0 0 Z " fill="#E4E4E4" transform="translate(49,92)"/>
<path d="M0 0 C0.99 0.66 1.98 1.32 3 2 C2.67 2.99 2.34 3.98 2 5 C0.80503906 4.96519531 -0.38992187 4.93039063 -1.62109375 4.89453125 C-14.5099771 4.62629508 -22.86145626 5.46373293 -33 14 C-33.1484375 11.66015625 -33.1484375 11.66015625 -33 9 C-24.17155391 -0.52542868 -12.20055521 -1.11979482 0 0 Z " fill="#CDCDCD" transform="translate(45,84)"/>
<path d="M0 0 C0.66 0 1.32 0 2 0 C2.5073957 3.20720862 3.004579 6.41592163 3.5 9.625 C3.64308594 10.52863281 3.78617188 11.43226562 3.93359375 12.36328125 C4.63734167 16.95439866 5.18584778 21.33831815 5 26 C2.36 26 -0.28 26 -3 26 C-3.16589226 19.97258105 -2.57114133 14.42505207 -1.5 8.5 C-1.35691406 7.67757812 -1.21382813 6.85515625 -1.06640625 6.0078125 C-0.71693088 4.00415373 -0.35931844 2.00191702 0 0 Z " fill="#E9E9E9" transform="translate(127,89)"/>
<path d="M0 0 C1.76953125 1.51953125 1.76953125 1.51953125 3 3 C2.67 3.66 2.34 4.32 2 5 C1.28714844 4.96519531 0.57429688 4.93039063 -0.16015625 4.89453125 C-6.74067425 4.65234552 -6.74067425 4.65234552 -12.9375 6.5625 C-16 8 -16 8 -18.4375 7.6875 C-18.953125 7.460625 -19.46875 7.23375 -20 7 C-14.50795589 0.86183305 -8.19156154 -1.45107662 0 0 Z " fill="#DDDDDD" transform="translate(50,106)"/>
<path d="M0 0 C8.25 0 16.5 0 25 0 C25 0.33 25 0.66 25 1 C24.28457031 1.08636719 23.56914063 1.17273438 22.83203125 1.26171875 C14.69559745 2.4090296 7.55451916 4.80760642 0 8 C0 5.36 0 2.72 0 0 Z " fill="#040404" transform="translate(15,82)"/>
<path d="M0 0 C1.60875 0.11794922 1.60875 0.11794922 3.25 0.23828125 C6 0.6875 6 0.6875 8 2.6875 C8 3.6775 8 4.6675 8 5.6875 C4.45325997 6.86974668 2.02477005 6.58079634 -1.6875 6.25 C-2.86699219 6.14816406 -4.04648437 6.04632813 -5.26171875 5.94140625 C-6.16535156 5.85761719 -7.06898437 5.77382812 -8 5.6875 C-8 4.0375 -8 2.3875 -8 0.6875 C-5.20232513 -0.71133743 -3.1013728 -0.24974997 0 0 Z " fill="#999999" transform="translate(37,68.3125)"/>
<path d="M0 0 C2 2 2 2 2.375 5.3125 C1.93335016 9.6553901 1.36668288 11.22248662 -2 14 C-4.80196606 14.41708655 -7.14256735 14.23811939 -10 14 C-9 12 -9 12 -6.625 10.875 C-3.33233296 8.52309497 -2.76278557 6.50279604 -1.578125 2.7421875 C-1 1 -1 1 0 0 Z " fill="#C8C8C8" transform="translate(57,115)"/>
<path d="M0 0 C5.95074431 5.79816112 5.95074431 5.79816112 6.09765625 9.3828125 C6.08605469 10.28773437 6.07445312 11.19265625 6.0625 12.125 C6.05347656 13.03507812 6.04445313 13.94515625 6.03515625 14.8828125 C6.02355469 15.58148438 6.01195312 16.28015625 6 17 C5.67 16.34 5.34 15.68 5 15 C3.68 15 2.36 15 1 15 C-0.42705634 9.69276568 -1.4002792 5.46108889 0 0 Z " fill="#838383" transform="translate(54,90)"/>
<path d="M0 0 C0.99 0.33 1.98 0.66 3 1 C3 1.66 3 2.32 3 3 C6.26545761 4.88391785 9.28111761 5.49287967 13 6 C13 6.99 13 7.98 13 9 C14.32 9.66 15.64 10.32 17 11 C11.52730529 11.33506294 7.84194211 10.6071996 3 8 C1.0625 6.0625 1.0625 6.0625 0 4 C0 2.68 0 1.36 0 0 Z " fill="#999999" transform="translate(7,100)"/>
<path d="M0 0 C0.66 0.33 1.32 0.66 2 1 C2.33 1.99 2.66 2.98 3 4 C-0.79692186 6.82561627 -3.18569279 8.56638908 -8 8 C-8 7.34 -8 6.68 -8 6 C-9.65 6 -11.3 6 -13 6 C-13 5.67 -13 5.34 -13 5 C-12.31292969 4.80664062 -11.62585937 4.61328125 -10.91796875 4.4140625 C-10.01691406 4.15367188 -9.11585937 3.89328125 -8.1875 3.625 C-7.29417969 3.36976562 -6.40085937 3.11453125 -5.48046875 2.8515625 C-2.79532104 2.04733339 -2.79532104 2.04733339 0 0 Z " fill="#DEDEDE" transform="translate(47,117)"/>
<path d="M0 0 C0 1.65 0 3.3 0 5 C-2.88211302 5.96070434 -4.69850044 6.10581883 -7.6875 6.0625 C-8.89986328 6.04896484 -8.89986328 6.04896484 -10.13671875 6.03515625 C-11.05904297 6.01775391 -11.05904297 6.01775391 -12 6 C-12 5.01 -12 4.02 -12 3 C-10.37604003 2.49663233 -8.75079459 1.99741024 -7.125 1.5 C-6.22007813 1.2215625 -5.31515625 0.943125 -4.3828125 0.65625 C-2 0 -2 0 0 0 Z " fill="#B2B2B2" transform="translate(30,104)"/>
<path d="M0 0 C0.8125 1.6875 0.8125 1.6875 1 4 C-1.46026571 6.87030999 -3.85489214 8.90326143 -7 11 C-7.66 9.35 -8.32 7.7 -9 6 C-7.8803014 4.99406757 -6.7540588 3.9954151 -5.625 3 C-4.68527344 2.1646875 -4.68527344 2.1646875 -3.7265625 1.3125 C-2 0 -2 0 0 0 Z " fill="#CFCFCF" transform="translate(49,92)"/>
<path d="M0 0 C6.625 -0.25 6.625 -0.25 10 2 C9.67 2.99 9.34 3.98 9 5 C3.72 4.67 -1.56 4.34 -7 4 C-7 3.67 -7 3.34 -7 3 C-5.5459375 2.814375 -5.5459375 2.814375 -4.0625 2.625 C-2.5465625 2.315625 -2.5465625 2.315625 -1 2 C-0.67 1.34 -0.34 0.68 0 0 Z " fill="#9B9B9B" transform="translate(38,84)"/>
<path d="M0 0 C0.33 0 0.66 0 1 0 C1 1.65 1 3.3 1 5 C1.66 5 2.32 5 3 5 C2.25 11.75 2.25 11.75 0 14 C-0.99 13.01 -1.98 12.02 -3 11 C-2.01 7.37 -1.02 3.74 0 0 Z " fill="#ADADAD" transform="translate(56,100)"/>
<path d="M0 0 C1.62418745 -0.08090971 3.24951745 -0.13914995 4.875 -0.1875 C5.77992187 -0.22230469 6.68484375 -0.25710937 7.6171875 -0.29296875 C8.79667969 -0.14794922 8.79667969 -0.14794922 10 0 C10.66 0.99 11.32 1.98 12 3 C7.38 3.33 2.76 3.66 -2 4 C-1.34 2.68 -0.68 1.36 0 0 Z " fill="#D0D0D0" transform="translate(28,84)"/>
<path d="M0 0 C1.43655854 -0.08131463 2.8744483 -0.13933559 4.3125 -0.1875 C5.51326172 -0.23970703 5.51326172 -0.23970703 6.73828125 -0.29296875 C9.47851584 0.06198392 10.29171079 0.89366282 12 3 C11.67 3.66 11.34 4.32 11 5 C8.03 4.67 5.06 4.34 2 4 C2 3.34 2 2.68 2 2 C1.34 1.34 0.68 0.68 0 0 Z " fill="#C7C7C7" transform="translate(41,106)"/>
<path d="M0 0 C-0.350625 0.78375 -0.70125 1.5675 -1.0625 2.375 C-1.371875 3.24125 -1.68125 4.1075 -2 5 C-1.67 5.66 -1.34 6.32 -1 7 C-5.875 6.125 -5.875 6.125 -7 5 C-7.04063832 3.33382885 -7.042721 1.66611905 -7 0 C-3.98968256 -0.93423645 -3.13349732 -1.04449911 0 0 Z " fill="#4F4F4F" transform="translate(31,69)"/>
<path d="M0 0 C1.5625 1.625 1.5625 1.625 3 4 C2.77962372 7.67293796 2.63033454 9.36966546 0 12 C-0.33 11.01 -0.66 10.02 -1 9 C-1.66 8.67 -2.32 8.34 -3 8 C-2.01 5.36 -1.02 2.72 0 0 Z " fill="#949494" transform="translate(50,83)"/>
<path d="M0 0 C0 0.99 0 1.98 0 3 C1.32 3.66 2.64 4.32 4 5 C-3.42857143 5.28571429 -3.42857143 5.28571429 -7 3 C-7 2.34 -7 1.68 -7 1 C-4.53721199 -0.231394 -2.7204945 -0.07159196 0 0 Z " fill="#8D8D8D" transform="translate(20,106)"/>
<path d="M0 0 C1.32 0.66 2.64 1.32 4 2 C-0.75 6.875 -0.75 6.875 -3 8 C-3.36923077 3.44615385 -3.36923077 3.44615385 -1.5 1.1875 C-1.005 0.795625 -0.51 0.40375 0 0 Z " fill="#B3B3B3" transform="translate(15,90)"/>
<path d="M0 0 C2.125 0.9375 2.125 0.9375 4 2 C3.67 2.66 3.34 3.32 3 4 C3.66 4.33 4.32 4.66 5 5 C2.69 5.33 0.38 5.66 -2 6 C-2 4.35 -2 2.7 -2 1 C-1.34 0.67 -0.68 0.34 0 0 Z " fill="#BEBEBE" transform="translate(31,68)"/>
<path d="M0 0 C0 1.65 0 3.3 0 5 C-4.75 4.25 -4.75 4.25 -7 2 C-2.25 0 -2.25 0 0 0 Z " fill="#C3C3C3" transform="translate(30,104)"/>
<path d="M0 0 C2 2 2 2 2.125 5.625 C2.08375 6.73875 2.0425 7.8525 2 9 C0.68 8.01 -0.64 7.02 -2 6 C-1.125 1.125 -1.125 1.125 0 0 Z " fill="#BEBEBE" transform="translate(57,115)"/>
<path d="M0 0 C0.66 0.33 1.32 0.66 2 1 C2 1.66 2 2.32 2 3 C-1.3 4.32 -4.6 5.64 -8 7 C-8.33 6.01 -8.66 5.02 -9 4 C-7.54618103 3.30300448 -6.08677047 2.61766134 -4.625 1.9375 C-3.40683594 1.36322266 -3.40683594 1.36322266 -2.1640625 0.77734375 C-1.44992188 0.52082031 -0.73578125 0.26429687 0 0 Z " fill="#292929" transform="translate(39,104)"/>
<path d="M0 0 C1.32 0.66 2.64 1.32 4 2 C3.67 2.99 3.34 3.98 3 5 C1.35 4.67 -0.3 4.34 -2 4 C-1.34 2.68 -0.68 1.36 0 0 Z " fill="#8D8D8D" transform="translate(191,127)"/>
<path d="M0 0 C0.763125 0.061875 1.52625 0.12375 2.3125 0.1875 C2.3125 0.8475 2.3125 1.5075 2.3125 2.1875 C3.3025 2.5175 4.2925 2.8475 5.3125 3.1875 C1.6825 3.1875 -1.9475 3.1875 -5.6875 3.1875 C-2.6875 0.1875 -2.6875 0.1875 0 0 Z " fill="#B5B5B5" transform="translate(36.6875,122.8125)"/>
<path d="M0 0 C0.6875 1.8125 0.6875 1.8125 1 4 C-0.4375 5.75 -0.4375 5.75 -2 7 C-2.33 6.01 -2.66 5.02 -3 4 C-3.66 3.67 -4.32 3.34 -5 3 C-2.25 0 -2.25 0 0 0 Z " fill="#B4B4B4" transform="translate(49,92)"/>
<path d="M0 0 C1.32 0.33 2.64 0.66 4 1 C4 2.65 4 4.3 4 6 C2.68 5.67 1.36 5.34 0 5 C0 3.35 0 1.7 0 0 Z " fill="#787878" transform="translate(11,98)"/>
<path d="M0 0 C0.66 0.33 1.32 0.66 2 1 C2.33 1.99 2.66 2.98 3 4 C2.34 4.66 1.68 5.32 1 6 C0.01 6 -0.98 6 -2 6 C-1.125 1.125 -1.125 1.125 0 0 Z " fill="#F5F5F5" transform="translate(47,117)"/>
<path d="M0 0 C1.32 0.66 2.64 1.32 4 2 C3.34 3.65 2.68 5.3 2 7 C1.01 6.34 0.02 5.68 -1 5 C-0.67 3.35 -0.34 1.7 0 0 Z " fill="#BFBFBF" transform="translate(29,113)"/>
<path d="M0 0 C2.31 0.33 4.62 0.66 7 1 C6.01 1.495 6.01 1.495 5 2 C5.33 2.99 5.66 3.98 6 5 C4.35 4.67 2.7 4.34 1 4 C0.67 2.68 0.34 1.36 0 0 Z " fill="#A6A6A6" transform="translate(33,68)"/>
<path d="M0 0 C2.64 0.33 5.28 0.66 8 1 C4.86501708 2.85776765 2.62528568 3.20140476 -1 3 C-0.67 2.01 -0.34 1.02 0 0 Z " fill="#F8F8F8" transform="translate(27,85)"/>
<path d="M0 0 C-0.33 1.32 -0.66 2.64 -1 4 C-4 3 -4 3 -6 2 C-6 1.34 -6 0.68 -6 0 C-3 -1 -3 -1 0 0 Z " fill="#868686" transform="translate(31,69)"/>
<path d="M0 0 C1.32 0.66 2.64 1.32 4 2 C4 2.99 4 3.98 4 5 C3.01 5.33 2.02 5.66 1 6 C0.34 4.35 -0.32 2.7 -1 1 C-0.67 0.67 -0.34 0.34 0 0 Z " fill="#8C8C8C" transform="translate(41,69)"/>
</svg>
